<?xml version="1.0" encoding="UTF-8"?>
<svg width="140px" height="141px" viewBox="0 0 140 141" version="1.1" xmlns="http://www.w3.org/2000/svg" xmlns:xlink="http://www.w3.org/1999/xlink">
    <title>Group 62</title>
    <defs>
        <polygon id="path-1" points="0.684608696 0.165826087 15.3121739 0.165826087 15.3121739 9.39456542 0.684608696 9.39456542"></polygon>
    </defs>
    <g id="Page-1" stroke="none" stroke-width="1" fill="none" fill-rule="evenodd">
        <g id="Artboard-Copy-2" transform="translate(-130.000000, -612.000000)">
            <g id="Group-10" transform="translate(101.000000, 584.000000)">
                <g id="Group-62" transform="translate(99.000000, 99.000000) rotate(-315.000000) translate(-99.000000, -99.000000) translate(29.000000, 29.000000)">
                    <path d="M100.935826,14.1687826 C101.481043,14.4766087 101.942783,14.547913 102.321913,14.3826957 C102.701913,14.2174783 103.054087,13.8470435 103.379304,13.2713913 C103.692348,12.7166087 103.826261,12.2435652 103.781043,11.8513913 C103.736696,11.4592174 103.466261,11.1244348 102.971478,10.8453043 L102.092348,10.3487826 L100.178435,13.7418261 L100.935826,14.1687826 Z M100.408,7.00095652 L103.785391,8.90791304 C105.12713,9.66617391 106.00887,10.4757391 106.42713,11.3383478 C106.846261,12.200087 106.714087,13.2374783 106.02887,14.4487826 C105.568,15.2661739 105.094087,15.8574783 104.609739,16.2226957 C104.123652,16.587913 103.515826,16.7435652 102.786261,16.6913913 L101.115826,23.5774783 L98.314087,21.9957391 L100.069739,15.7374783 L99.2966957,15.3018261 L96.194087,20.7992174 L93.4836522,19.2687826 L100.408,7.00095652 Z" id="Fill-1" fill="#000000"></path>
                    <polygon id="Fill-3" fill="#000000" points="110.923913 13.4176522 115.879565 17.3550435 114.560435 19.0167826 112.041304 17.0150435 109.867391 19.7524348 111.786522 21.2776522 110.445652 22.9663478 108.525652 21.4411304 105.907391 24.7367826 108.454348 26.7593913 107.144783 28.4072174 102.161304 24.448087"></polygon>
                    <path d="M114.607652,29.1793913 L118.121565,24.8872174 L113.588522,28.0846087 L114.607652,29.1793913 Z M119.650261,21.0167826 L122.067652,23.6141739 L113.545913,35.1341739 L111.59113,33.0341739 L113.447652,30.6637391 L112.038087,29.1489565 L109.529391,30.8185217 L107.525913,28.668087 L119.650261,21.0167826 Z" id="Fill-5" fill="#000000"></path>
                    <path d="M117.968783,37.8406087 C118.215739,38.2197391 118.45487,38.4614783 118.682696,38.5684348 C118.911391,38.6745217 119.146174,38.684087 119.387043,38.5962609 C119.627043,38.5084348 119.951391,38.3310435 120.358348,38.064087 L125.497478,34.7049565 C125.875739,34.4571304 126.146174,34.2414783 126.311391,34.058 C126.474,33.8745217 126.546174,33.6614783 126.527043,33.4188696 C126.505304,33.1753913 126.372261,32.8649565 126.124435,32.4866957 L125.867913,32.0936522 L117.701826,37.4327826 L117.968783,37.8406087 Z M125.983565,28.298 L127.93487,31.2823478 C128.600957,32.3006087 128.99487,33.1788696 129.116609,33.9171304 C129.239217,34.6545217 129.108783,35.318 128.725304,35.9075652 C128.342696,36.498 127.699217,37.0875652 126.796609,37.678 L122.517478,40.4762609 C121.606174,41.0727826 120.800087,41.4293043 120.101826,41.5475652 C119.401826,41.6649565 118.736609,41.5258261 118.102696,41.1293043 C117.469652,40.7327826 116.823565,40.0301739 116.163565,39.0206087 L114.19313,36.0084348 L125.983565,28.298 Z" id="Fill-7" fill="#000000"></path>
                    <polygon id="Fill-9" fill="#000000" points="134.851391 44.167913 135.85487 47.3531304 128.508783 51.2913913 136.822696 50.4209565 137.790522 53.4896522 124.428783 57.9574783 123.764435 55.8513913 132.625304 52.7835652 123.19487 54.0426957 122.603565 52.1687826 131.087043 47.6705217 122.017478 50.3113913 121.343565 48.1713913"></polygon>
                    <path d="M127.629043,64.156 C127.937739,64.262087 128.345565,64.2855652 128.853391,64.2290435 L135.594261,63.4777391 C136.112522,63.4194783 136.508174,63.3055652 136.781217,63.1351304 C137.053391,62.9646957 137.165565,62.6603478 137.116,62.2229565 C137.069913,61.8081739 136.892522,61.5481739 136.583826,61.442087 C136.273391,61.3368696 135.866435,61.3125217 135.359478,61.3690435 L128.618609,62.1212174 C128.111652,62.1777391 127.717739,62.2855652 127.438609,62.4446957 C127.158609,62.6046957 127.042957,62.9029565 127.092522,63.3412174 C127.140348,63.7786087 127.320348,64.0507826 127.629043,64.156 M125.702957,60.2238261 C126.409043,59.4916522 127.522087,59.0403478 129.043826,58.8707826 L134.245565,58.2907826 C135.766435,58.1212174 136.946435,58.316 137.785565,58.876 C138.622957,59.436 139.126435,60.4707826 139.29513,61.9803478 C139.463826,63.5012174 139.199478,64.629913 138.500348,65.3673043 C137.800348,66.1046957 136.696,66.5568696 135.186435,66.7255652 L129.983826,67.3055652 C128.462957,67.4751304 127.277739,67.2777391 126.426435,66.7133913 C125.57687,66.1490435 125.066435,65.1064348 124.896,63.5855652 C124.728174,62.076 124.997739,60.9551304 125.702957,60.2238261" id="Fill-11" fill="#000000"></path>
                    <g id="Group-15" transform="translate(124.347826, 69.172174)">
                        <mask id="mask-2" fill="white">
                            <use xlink:href="#path-1"></use>
                        </mask>
                        <g id="Clip-14"></g>
                        <path d="M9.08286957,4.66843478 C9.042,5.29365217 9.17765217,5.7406087 9.49243478,6.01104348 C9.80547826,6.28147826 10.2924348,6.438 10.9506957,6.48147826 C11.588087,6.52234783 12.0724348,6.438 12.4054783,6.22756522 C12.7393913,6.01713043 12.9246087,5.62843478 12.962,5.06147826 L13.0272174,4.05452174 L9.1393913,3.8006087 L9.08286957,4.66843478 Z M15.3124348,1.08495652 L15.0593913,4.95452174 C14.9593913,6.49365217 14.6106957,7.638 14.0167826,8.38930435 C13.4202609,9.1406087 12.4289565,9.47104348 11.0411304,9.37973913 C10.1037391,9.31886957 9.3646087,9.14843478 8.82634783,8.86930435 C8.28634783,8.59017391 7.882,8.11017391 7.61330435,7.43104348 L0.684608696,8.91191304 L0.893304348,5.70147826 L7.29417391,4.56930435 L7.35243478,3.68408696 L1.05330435,3.27278261 L1.25591304,0.165826087 L15.3124348,1.08495652 Z" id="Fill-13" fill="#000000" mask="url(#mask-2)"></path>
                    </g>
                    <polygon id="Fill-16" fill="#000000" points="138.436609 82.5438261 137.03487 88.7177391 134.966174 88.2473043 135.677478 85.109913 132.268783 84.336 131.725304 86.7273043 129.622696 86.2490435 130.166174 83.8577391 126.062696 82.9255652 125.340957 86.0968696 123.289652 85.6307826 124.699217 79.4238261"></polygon>
                    <path d="M123.850174,97.0075652 L129.11713,98.7458261 L124.505826,95.6632174 L123.850174,97.0075652 Z M133.27887,98.7832174 L131.722348,101.971043 L117.911043,98.1536522 L119.169304,95.5753913 L122.048435,96.4571304 L122.955391,94.5971304 L120.496261,92.8553913 L121.784957,90.2145217 L133.27887,98.7832174 Z" id="Fill-18" fill="#000000"></path>
                    <path d="M121.995565,107.041565 C121.608609,107.577217 121.467739,108.029391 121.572957,108.398957 C121.678174,108.767652 121.988609,109.139826 122.506,109.51287 C122.956435,109.838957 123.38687,109.962435 123.792087,109.885043 C124.199913,109.806783 124.572957,109.53287 124.912087,109.062435 L125.227739,108.625913 L122.352087,106.548522 L121.995565,107.041565 Z M116.876435,103.406783 C116.489478,103.943304 116.350348,104.417217 116.458174,104.832 C116.566,105.246783 116.90687,105.660696 117.480783,106.075478 C118.128609,106.543304 118.66513,106.762435 119.08687,106.732 C119.510348,106.700696 119.918174,106.41287 120.312087,105.867652 L120.688609,105.345913 L117.263391,102.872 L116.876435,103.406783 Z M128.743391,107.325043 L126.593826,110.298957 C126.058174,111.041565 125.523391,111.617217 124.991217,112.026783 C124.459913,112.437217 123.857304,112.641567 123.184261,112.641567 C122.512087,112.642435 121.776435,112.353739 120.977304,111.777217 C120.300783,111.287652 119.879043,110.761565 119.714696,110.198957 C119.549478,109.636348 119.607739,109.049391 119.891217,108.438957 C119.332087,109.035478 118.691217,109.338957 117.970348,109.346783 C117.248609,109.354609 116.484261,109.067652 115.675565,108.483304 C113.420783,106.853739 113.12513,104.887652 114.787739,102.585043 L117.324261,99.0746087 L128.743391,107.325043 Z" id="Fill-20" fill="#000000"></path>
                    <path d="M109.6,112.146435 C109.706087,112.456 109.935652,112.793391 110.290435,113.160348 L115.010435,118.032522 C115.373043,118.407304 115.705217,118.649913 116.006087,118.761217 C116.307826,118.872522 116.616522,118.776 116.933913,118.469043 C117.233043,118.178609 117.330435,117.878609 117.225217,117.569913 C117.11913,117.260348 116.888696,116.922957 116.533913,116.556 L111.815652,111.683826 C111.46087,111.31687 111.134783,111.072522 110.837391,110.949043 C110.54,110.824696 110.233043,110.916 109.915652,111.222957 C109.59913,111.529913 109.493913,111.837739 109.6,112.146435 M111.532174,108.21687 C112.543478,108.327304 113.58087,108.932522 114.646087,110.031652 L118.287826,113.792522 C119.352174,114.891652 119.92,115.943826 119.989565,116.949913 C120.05913,117.95513 119.548696,118.986435 118.458261,120.042957 C117.35913,121.108174 116.303478,121.589043 115.292174,121.486435 C114.281739,121.384696 113.246957,120.788174 112.190435,119.69687 L108.549565,115.936 C107.484348,114.83687 106.915652,113.777739 106.84087,112.760348 C106.767826,111.742957 107.28,110.701217 108.38,109.63687 C109.470435,108.579478 110.521739,108.106435 111.532174,108.21687" id="Fill-22" fill="#000000"></path>
                    <path d="M103.126696,114.840522 C103.828435,114.780522 104.467565,114.957043 105.047565,115.370087 C105.626696,115.78313 106.204087,116.417913 106.781478,117.273565 L112.218,125.333565 L109.665826,127.054435 L103.967565,118.605739 C103.650174,118.134435 103.336261,117.799652 103.028435,117.602261 C102.719739,117.40487 102.384087,117.429217 102.018,117.675304 C101.652783,117.921391 101.506696,118.22313 101.579739,118.579652 C101.652783,118.936174 101.846696,119.350087 102.165826,119.821391 L107.863217,128.270087 L105.29713,130.001391 L99.8606087,121.941391 C99.2832174,121.085739 98.9145217,120.310957 98.7536522,119.615304 C98.591913,118.919652 98.6684348,118.260522 98.9806087,117.636174 C99.2953913,117.012696 99.8893043,116.405739 100.764087,115.815304 C101.63887,115.225739 102.425826,114.900522 103.126696,114.840522" id="Fill-24" fill="#000000"></path>
                    <polygon id="Fill-26" fill="#000000" points="99.7537391 130.258696 101.676348 129.359565 102.656348 131.454348 95.9928696 134.571739 95.012 132.476957 96.9189565 131.584783 91.9293913 120.920435 94.7650435 119.594348"></polygon>
                    <polygon id="Fill-28" fill="#000000" points="87.4677391 137.473391 84.1868696 138.086435 81.1607826 130.317739 81.0233913 138.67687 77.859913 139.267304 75.0355652 125.464696 77.206 125.059478 79.1833913 134.225565 79.0694783 124.710783 81.0016522 124.350783 84.4442609 133.314261 82.9164348 123.992522 85.1225217 123.581217"></polygon>
                    <polygon id="Fill-30" fill="#000000" points="73.5682609 139.504174 67.2386957 139.606783 67.203913 137.485043 70.4213043 137.43287 70.3630435 133.938087 67.9126087 133.978087 67.8769565 131.821565 70.3291304 131.781565 70.2604348 127.573739 67.0091304 127.625913 66.9752174 125.522435 73.3386957 125.418957"></polygon>
                    <path d="M41.6304348,127.028 C41.0695652,126.749739 40.6043478,126.702783 40.2347826,126.88713 C39.8643478,127.072348 39.5313043,127.461043 39.2373913,128.053217 C38.953913,128.623652 38.8452174,129.103652 38.9104348,129.492348 C38.9756522,129.881043 39.2634783,130.201913 39.7721739,130.454957 L40.6756522,130.903652 L42.4095652,127.414957 L41.6304348,127.028 Z M42.533913,134.157565 L39.0617391,132.432348 C37.6808696,131.746261 36.7582609,130.982783 36.2947826,130.144522 C35.8313043,129.305391 35.9086957,128.262783 36.5286957,127.017565 C36.946087,126.176696 37.3878261,125.561043 37.8530435,125.170609 C38.3191304,124.781043 38.9182609,124.592348 39.6486957,124.606261 L40.9547826,117.641913 L43.8347826,119.074087 L42.4113043,125.415826 L43.206087,125.810609 L46.0156522,120.157565 L48.8034783,121.542783 L42.533913,134.157565 Z" id="Fill-32" fill="#000000"></path>
                    <polygon id="Fill-34" fill="#000000" points="31.6933043 128.301304 26.5367826 124.628261 27.7672174 122.900435 30.388087 124.767391 32.415913 121.919565 30.4185217 120.496957 31.6698261 118.740435 33.6672174 120.163043 36.1089565 116.735217 33.4593913 114.848261 34.6811304 113.134348 39.8646087 116.827391"></polygon>
                    <path d="M27.1832174,112.749391 L23.8997391,117.218957 L28.258,113.789391 L27.1832174,112.749391 Z M22.5736522,121.163304 L20.0249565,118.696348 L27.9327826,106.747652 L29.9953913,108.743304 L28.2649565,111.206783 L29.751913,112.645913 L32.1701739,110.846783 L34.2823478,112.89113 L22.5736522,121.163304 Z" id="Fill-36" fill="#000000"></path>
                    <path d="M23.3822609,104.282957 C23.1153043,103.917739 22.8648696,103.688174 22.6309565,103.594261 C22.3961739,103.499478 22.1622609,103.502957 21.9257391,103.602957 C21.6909565,103.702957 21.3761739,103.897739 20.9831304,104.184696 L16.0292174,107.809913 C15.664,108.07687 15.404,108.306435 15.2492174,108.497739 C15.0970435,108.689913 15.0353043,108.906435 15.0674783,109.148174 C15.1022609,109.389913 15.2509565,109.692522 15.517913,110.057739 L15.7953043,110.43687 L23.670087,104.676 L23.3822609,104.282957 Z M15.8796522,114.232522 L13.7744348,111.35513 C13.0553043,110.372522 12.6153043,109.51687 12.4561739,108.786435 C12.2944348,108.056 12.3892174,107.387304 12.7413913,106.777739 C13.0926957,106.168174 13.704,105.545565 14.5744348,104.909043 L18.7005217,101.889913 C19.5805217,101.246435 20.3666087,100.847304 21.057913,100.693391 C21.7492174,100.539478 22.4222609,100.642957 23.0753043,101.005565 C23.7274783,101.368174 24.4109565,102.03687 25.1222609,103.009913 L27.2483478,105.91513 L15.8796522,114.232522 Z" id="Fill-38" fill="#000000"></path>
                    <polygon id="Fill-40" fill="#000000" points="6.1973913 98.8728696 5.02521739 95.745913 12.1521739 91.4215652 3.89652174 92.7328696 2.76695652 89.7206957 15.8713043 84.5476522 16.6469565 86.6154783 7.96 90.1511304 17.3113043 88.3911304 18.0017391 90.2311304 9.76956522 95.1746087 18.6852174 92.0546087 19.473913 94.1554783"></polygon>
                    <path d="M12.342087,78.4966087 C12.0273043,78.4070435 11.6186087,78.4044348 11.1151304,78.4870435 L4.42295652,79.5905217 C3.90817391,79.6748696 3.51947826,79.8105217 3.256,79.9948696 C2.99252174,80.1792174 2.896,80.4887826 2.96817391,80.9235652 C3.036,81.3348696 3.22730435,81.5853043 3.54121739,81.6748696 C3.85513043,81.7635652 4.26469565,81.7670435 4.76730435,81.6844348 L11.4603478,80.580087 C11.9629565,80.4974783 12.3507826,80.3696522 12.622087,80.1957391 C12.8925217,80.0209565 12.9925217,79.7174783 12.9212174,79.2818261 C12.8490435,78.847913 12.656,78.5861739 12.342087,78.4966087 M14.469913,82.3226957 C13.8046957,83.0905217 12.716,83.5992174 11.2055652,83.847913 L6.04121739,84.700087 C4.53165217,84.9487826 3.34208696,84.8157391 2.476,84.300087 C1.60991304,83.7853043 1.0533913,82.7783478 0.805565217,81.280087 C0.556869565,79.7696522 0.762956522,78.627913 1.42208696,77.8557391 C2.08208696,77.0835652 3.16121739,76.5731304 4.66034783,76.3253043 L9.82469565,75.474 C11.3351304,75.2253043 12.529913,75.3609565 13.4090435,75.8792174 C14.2864348,76.3983478 14.8507826,77.4131304 15.1003478,78.9226957 C15.3464348,80.4218261 15.1377391,81.5548696 14.469913,82.3226957" id="Fill-42" fill="#000000"></path>
                    <path d="M6.04617391,69.1131304 C6.0566087,68.4870435 5.89834783,68.0470435 5.57226087,67.7922609 C5.24530435,67.5374783 4.75226087,67.4053043 4.0913913,67.394 C3.454,67.3835652 2.974,67.4922609 2.6513913,67.7183478 C2.32878261,67.9453043 2.16182609,68.3426957 2.15313043,68.9105217 L2.1366087,69.9192174 L6.03226087,69.9826957 L6.04617391,69.1131304 Z M8.69565217e-05,72.9983478 L0.0626956522,69.120087 C0.0879130435,67.5783478 0.378347826,66.4183478 0.936608696,65.6383478 C1.49486957,64.8592174 2.46878261,64.480087 3.86008696,64.5026957 C4.79834783,64.5183478 5.54443478,64.6522609 6.09747826,64.9044348 C6.64878261,65.1574783 7.07747826,65.6166087 7.37921739,66.2818261 L14.2270435,64.4626957 L14.1748696,67.6792174 L7.83834783,69.1244348 L7.82269565,70.0113913 L14.1357391,70.114 L14.0844348,73.2261739 L8.69565217e-05,72.9983478 Z" id="Fill-44" fill="#000000"></path>
                    <polygon id="Fill-46" fill="#000000" points="0.591043478 60.7214783 1.66582609 54.4832174 3.75713043 54.8432174 3.21104348 58.0136522 6.65626087 58.6066957 7.07191304 56.1901739 9.19626087 56.5553913 8.7806087 58.9727826 12.9284348 59.6866957 13.4797391 56.4814783 15.5536522 56.8388696 14.4745217 63.111913"></polygon>
                    <path d="M14.3877391,45.5168696 L9.03643478,44.0612174 L13.8042609,46.8942609 L14.3877391,45.5168696 Z M4.87817391,44.2438261 L6.2633913,40.9777391 L20.2581739,44.0568696 L19.1381739,46.6994783 L16.2164348,45.9707826 L15.4094783,47.876 L17.9564348,49.4855652 L16.8103478,52.1916522 L4.87817391,44.2438261 Z" id="Fill-48" fill="#000000"></path>
                    <path d="M21.0190435,38.750087 C21.3773043,38.1944348 21.4912174,37.7135652 21.3625217,37.3048696 C21.2312174,36.8970435 20.8694783,36.5013913 20.2755652,36.117913 C19.6033913,35.684 19.0573043,35.4935652 18.6364348,35.5457391 C18.2164348,35.5987826 17.8233913,35.9083478 17.4590435,36.4726957 L17.1094783,37.0135652 L20.6607826,39.3048696 L21.0190435,38.750087 Z M15.7155652,35.3892174 C16.0738261,34.8344348 16.1903478,34.3753043 16.0668696,34.0118261 C15.9425217,33.6483478 15.612087,33.2944348 15.0764348,32.9483478 C14.6094783,32.6466087 14.1746957,32.5457391 13.772087,32.6448696 C13.3694783,32.744 13.0112174,33.0370435 12.6973043,33.524 L12.4051304,33.9770435 L15.3851304,35.9013913 L15.7155652,35.3892174 Z M8.9633913,35.4613913 L10.9529565,32.377913 C11.4494783,31.6083478 11.9529565,31.0048696 12.4625217,30.5683478 C12.972087,30.1309565 13.5633913,29.8944348 14.2338261,29.8587826 C14.9068696,29.8231304 15.6555652,30.0726957 16.4842609,30.6066087 C17.186,31.0596522 17.6329565,31.5631304 17.8277391,32.1161739 C18.0233913,32.670087 17.9938261,33.2587826 17.7425217,33.8831304 C18.2712174,33.257913 18.8955652,32.9222609 19.6146957,32.8761739 C20.3346957,32.830087 21.1129565,33.0770435 21.9512174,33.617913 C24.2886087,35.1266087 24.6877391,37.0744348 23.1468696,39.4613913 L20.799913,43.0996522 L8.9633913,35.4613913 Z" id="Fill-50" fill="#000000"></path>
                    <path d="M27.8193043,29.6498261 C27.6966957,29.3463478 27.4497391,29.0211304 27.0766957,28.6733043 L22.108,24.055913 C21.7253913,23.7011304 21.381913,23.4750435 21.0749565,23.3802609 C20.768,23.2846087 20.4636522,23.3985217 20.1636522,23.7211304 C19.8793043,24.0263478 19.7984348,24.3315652 19.9201739,24.6341739 C20.0427826,24.9376522 20.2906087,25.2628696 20.6636522,25.6098261 L25.6314783,30.228087 C26.0053913,30.5750435 26.3436522,30.8028696 26.6471304,30.9106957 C26.9506087,31.0185217 27.2523478,30.9115652 27.5523478,30.5889565 C27.8514783,30.2654783 27.941913,29.9533043 27.8193043,29.6498261 M26.0958261,33.6750435 C25.0810435,33.6176522 24.0123478,33.068087 22.8914783,32.0263478 L19.0575652,28.462 C17.9366957,27.4202609 17.3149565,26.3993913 17.1914783,25.3985217 C17.0697391,24.3976522 17.5253913,23.342 18.5593043,22.2289565 C19.6010435,21.108087 20.6297391,20.5724348 21.6436522,20.6211304 C22.6593043,20.6706957 23.7227826,21.2115652 24.8349565,22.2463478 L28.6706087,25.8098261 C29.7914783,26.8515652 30.414087,27.8793913 30.541913,28.8915652 C30.6688696,29.9046087 30.2123478,30.9715652 29.1697391,32.0924348 C28.1349565,33.2046087 27.1114783,33.7324348 26.0958261,33.6750435" id="Fill-52" fill="#000000"></path>
                    <path d="M34.1355652,26.6250435 C33.4390435,26.7224348 32.7903478,26.5798261 32.1894783,26.1972174 C31.5894783,25.8154783 30.9781739,25.212 30.3564348,24.3885217 L24.5025217,16.6267826 L26.959913,14.7737391 L33.0981739,22.9093913 C33.4390435,23.3633043 33.7694783,23.6806957 34.0877391,23.8615652 C34.406,24.0433043 34.739913,24.0006957 35.0929565,23.7354783 C35.4442609,23.4702609 35.5738261,23.1615652 35.4833913,22.8093913 C35.392087,22.4572174 35.1746957,22.0546087 34.8329565,21.6006957 L28.6955652,13.4641739 L31.1668696,11.5998261 L37.0207826,19.3615652 C37.6425217,20.1850435 38.052087,20.9398261 38.2503478,21.625913 C38.4477391,22.312 38.4068696,22.9746087 38.1268696,23.6146087 C37.8468696,24.2537391 37.286,24.8911304 36.4433913,25.5267826 C35.6016522,26.1615652 34.832087,26.5276522 34.1355652,26.6250435" id="Fill-54" fill="#000000"></path>
                    <polygon id="Fill-56" fill="#000000" points="36.706 11.039913 34.8338261 12.0390435 33.7451304 9.99904348 40.2346957 6.53382609 41.3233913 8.57469565 39.4668696 9.56513043 45.0129565 19.9512174 42.252087 21.426"></polygon>
                    <polygon id="Fill-58" fill="#000000" points="48.6022609 3.18156522 51.8474783 2.39634783 55.2787826 9.99373913 54.9744348 1.63982609 58.1013913 0.882434783 61.6509565 14.518087 59.504 15.0372174 57.0466087 5.98765217 57.6613913 15.4824348 55.7526957 15.9450435 51.8413913 7.17547826 53.8587826 16.4033043 51.677913 16.9311304"></polygon>
                    <polygon id="Fill-60" fill="#000000" points="62.4422609 0.405217391 68.7596522 0 68.8953043 2.1173913 65.6848696 2.32347826 65.9083478 5.81217391 68.3553043 5.65478261 68.4935652 7.80695652 66.0466087 7.96347826 66.3161739 12.1634783 69.5622609 11.9556522 69.6961739 14.0556522 63.344 14.4634783"></polygon>
                </g>
            </g>
        </g>
    </g>
</svg>