<?xml version="1.0" encoding="UTF-8"?>
<svg width="100px" height="103px" viewBox="0 0 100 103" version="1.1" xmlns="http://www.w3.org/2000/svg" xmlns:xlink="http://www.w3.org/1999/xlink">
    <!-- Generator: Sketch 53.2 (72643) - https://sketchapp.com -->
    <title>Group 20</title>
    <desc>Created with Sketch.</desc>
    <defs>
        <polygon id="path-1" points="0 0.498254545 81.6354682 0.498254545 81.6354682 84.2272727 0 84.2272727"></polygon>
        <polygon id="path-3" points="0 84.7751364 81.6355455 84.7751364 81.6355455 0 0 0"></polygon>
    </defs>
    <g id="Page-1" stroke="none" stroke-width="1" fill="none" fill-rule="evenodd">
        <g id="Artboard-Copy-2" transform="translate(-128.000000, -936.000000)">
            <g id="Group-20" transform="translate(178.954545, 987.000000) rotate(16.000000) translate(-178.954545, -987.000000) translate(138.000000, 944.500000)">
                <g id="Group-3" transform="translate(0.000000, 0.547864)">
                    <mask id="mask-2" fill="white">
                        <use xlink:href="#path-1"></use>
                    </mask>
                    <g id="Clip-2"></g>
                    <path d="M74.2821955,37.3689364 L74.2821955,79.0297545 C74.2821955,80.0806636 73.4275591,80.9368455 72.3758773,80.9368455 L11.0568773,80.9368455 C10.0051955,80.9368455 9.14978636,80.0806636 9.14978636,79.0297545 L9.14978636,37.3689364 C9.14978636,36.3180273 10.0051955,35.4626182 11.0568773,35.4626182 L72.3758773,35.4626182 C73.4275591,35.4626182 74.2821955,36.3180273 74.2821955,37.3689364 L74.2821955,37.3689364 Z M76.0973318,77.4819818 L79.6735136,77.4819818 L79.6735136,74.3431636 L76.0973318,74.3431636 L76.0973318,77.4819818 Z M6.32469545,8.64898182 L6.32469545,10.7137091 L4.59919545,10.7137091 L4.59919545,8.64898182 L3.62710455,8.64898182 L5.46155909,4.23284545 L7.29678636,8.64898182 L6.32469545,8.64898182 Z M3.44474091,77.4819818 L7.02092273,77.4819818 L7.02092273,74.3431636 L3.44474091,74.3431636 L3.44474091,77.4819818 Z M9.24483182,0.499027273 L9.59410455,0.499027273 L9.59410455,28.2901636 C9.59410455,29.6061182 10.6643318,30.6755727 11.9795136,30.6755727 L61.0507864,30.6755727 C62.3659682,30.6755727 63.4361955,29.6061182 63.4361955,28.2901636 L63.4361955,0.499027273 L63.7846955,0.499027273 L63.7846955,28.2901636 C63.7846955,29.7985273 62.5583773,31.0248455 61.0507864,31.0248455 L11.9795136,31.0248455 C10.47115,31.0248455 9.24483182,29.7985273 9.24483182,28.2901636 L9.24483182,0.499027273 Z M62.7963773,0.498254545 L62.7963773,27.3613455 C62.7963773,28.9029364 61.54765,30.1524364 60.0052864,30.1524364 L23.9560136,30.1524364 C22.4144227,30.1524364 21.1649227,28.9029364 21.1649227,27.3613455 L21.1649227,0.498254545 L1.84055909,0.498254545 L-7.72727273e-05,2.33889091 L-7.72727273e-05,82.2705727 L1.95646818,84.2278909 L80.0714682,84.2278909 L81.6354682,82.6631182 L81.6354682,8.73475455 L73.3989682,0.498254545 L62.7963773,0.498254545 Z" id="Fill-1" fill="#478AFE" mask="url(#mask-2)"></path>
                </g>
                <path d="M73.2038545,38.43105 L73.2038545,78.5556864 C73.2038545,79.4852773 72.4496727,80.2394591 71.5200818,80.2394591 L11.3624909,80.2394591 C10.4329,80.2394591 9.67871818,79.4852773 9.67871818,78.5556864 L9.67871818,38.43105 C9.67871818,37.5014591 10.4329,36.7472773 11.3624909,36.7472773 L71.5200818,36.7472773 C72.4496727,36.7472773 73.2038545,37.5014591 73.2038545,38.43105 L73.2038545,38.43105 Z M11.0564909,36.3593682 C10.1979909,36.3593682 9.49944545,37.0579136 9.49944545,37.9164136 L9.49944545,79.5780045 C9.49944545,80.4365045 10.1979909,81.13505 11.0564909,81.13505 L72.3762636,81.13505 C73.2347636,81.13505 73.9333091,80.4365045 73.9333091,79.5780045 L73.9333091,37.9164136 C73.9333091,37.0579136 73.2347636,36.3593682 72.3762636,36.3593682 L11.0564909,36.3593682 Z" id="Fill-4" fill="#478AFE"></path>
                <path d="M55.0048136,4.41899545 L45.70195,4.41899545 C45.12395,4.41899545 44.6549045,4.88726818 44.6549045,5.46526818 L44.6549045,26.9787682 C44.6549045,27.5567682 45.12395,28.0258136 45.70195,28.0258136 L55.0048136,28.0258136 C55.5828136,28.0258136 56.0510864,27.5567682 56.0510864,26.9787682 L56.0510864,5.46526818 C56.0510864,4.88726818 55.5828136,4.41899545 55.0048136,4.41899545" id="Fill-6" fill="#478AFE"></path>
                <mask id="mask-4" fill="white">
                    <use xlink:href="#path-3"></use>
                </mask>
                <g id="Clip-9"></g>
                <polygon id="Fill-8" fill="#000000" mask="url(#mask-4)" points="3.44481818 78.03 7.021 78.03 7.021 74.8911818 3.44481818 74.8911818"></polygon>
                <polygon id="Fill-10" fill="#000000" mask="url(#mask-4)" points="3.62749091 9.19723182 4.59958182 9.19723182 4.59958182 11.2619591 6.32430909 11.2619591 6.32430909 9.19723182 7.29717273 9.19723182 5.46194545 4.78032273"></polygon>
                <path d="M56.0514727,26.979 C56.0514727,27.557 55.5832,28.0252727 55.0052,28.0252727 L45.7015636,28.0252727 C45.1235636,28.0252727 44.6552909,27.557 44.6552909,26.979 L44.6552909,5.4655 C44.6552909,4.8875 45.1235636,4.41922727 45.7015636,4.41922727 L55.0052,4.41922727 C55.5832,4.41922727 56.0514727,4.8875 56.0514727,5.4655 L56.0514727,26.979 Z M23.9562455,30.7004545 L60.0055182,30.7004545 C61.5471091,30.7004545 62.7966091,29.4509545 62.7966091,27.9093636 L62.7966091,1.04627273 L62.7966091,0.697772727 C62.7966091,0.312181818 62.4836545,0 62.0988364,0 L21.8629273,0 C21.4773364,0 21.1651545,0.312181818 21.1651545,0.697772727 L21.1651545,1.04627273 L21.1651545,27.9093636 C21.1651545,29.4509545 22.4146545,30.7004545 23.9562455,30.7004545 L23.9562455,30.7004545 Z" id="Fill-11" fill="#000000" mask="url(#mask-4)"></path>
                <path d="M11.9795909,31.5724 L61.0508636,31.5724 C62.5584545,31.5724 63.7847727,30.3460818 63.7847727,28.8384909 L63.7847727,1.04658182 L63.4362727,1.04658182 L63.4362727,28.8384909 C63.4362727,30.1536727 62.3660455,31.2239 61.0508636,31.2239 L11.9795909,31.2239 C10.6644091,31.2239 9.59418182,30.1536727 9.59418182,28.8384909 L9.59418182,1.04658182 L9.24490909,1.04658182 L9.24490909,28.8384909 C9.24490909,30.3460818 10.4712273,31.5724 11.9795909,31.5724" id="Fill-12" fill="#3EFFE3" mask="url(#mask-4)"></path>
                <path d="M73.9336182,37.9168 L73.9336182,79.5776182 C73.9336182,80.4361182 73.2350727,81.1354364 72.3758,81.1354364 L11.0568,81.1354364 C10.1983,81.1354364 9.49898182,80.4361182 9.49898182,79.5776182 L9.49898182,37.9168 C9.49898182,37.0583 10.1983,36.3589818 11.0568,36.3589818 L72.3758,36.3589818 C73.2350727,36.3589818 73.9336182,37.0583 73.9336182,37.9168 L73.9336182,37.9168 Z M11.0568,36.0104818 C10.0058909,36.0104818 9.14970909,36.8658909 9.14970909,37.9168 L9.14970909,79.5776182 C9.14970909,80.6285273 10.0058909,81.4847091 11.0568,81.4847091 L72.3758,81.4847091 C73.4274818,81.4847091 74.2821182,80.6285273 74.2821182,79.5776182 L74.2821182,37.9168 C74.2821182,36.8658909 73.4274818,36.0104818 72.3758,36.0104818 L11.0568,36.0104818 Z" id="Fill-13" fill="#3EFFE3" mask="url(#mask-4)"></path>
                <path d="M10.2177727,43.9573636 L72.6649545,43.9573636 L72.6649545,43.4921818 L10.2177727,43.4921818 L10.2177727,43.9573636 Z M10.2177727,51.1676818 L72.6649545,51.1676818 L72.6649545,50.7025 L10.2177727,50.7025 L10.2177727,51.1676818 Z M10.2177727,58.0279545 L72.6649545,58.0279545 L72.6649545,57.5627727 L10.2177727,57.5627727 L10.2177727,58.0279545 Z M10.2177727,64.7738636 L72.6649545,64.7738636 L72.6649545,64.3079091 L10.2177727,64.3079091 L10.2177727,64.7738636 Z M72.6649545,77.8012727 C72.6649545,78.7625455 71.8852727,79.5422273 70.924,79.5422273 L11.9579545,79.5422273 C10.9966818,79.5422273 10.2177727,78.7625455 10.2177727,77.8012727 L10.2177727,70.7037727 L72.6649545,70.7037727 L72.6649545,77.8012727 Z M11.3621818,36.7478182 C10.4325909,36.7478182 9.67840909,37.5012273 9.67840909,38.4308182 L9.67840909,78.5562273 C9.67840909,79.4858182 10.4325909,80.2392273 11.3621818,80.2392273 L71.5205455,80.2392273 C72.4501364,80.2392273 73.2035455,79.4858182 73.2035455,78.5562273 L73.2035455,38.4308182 C73.2035455,37.5012273 72.4501364,36.7478182 71.5205455,36.7478182 L11.3621818,36.7478182 Z" id="Fill-14" fill="#FFFFFF" mask="url(#mask-4)"></path>
                <path d="M10.2175409,77.80135 C10.2175409,78.7626227 10.99645,79.5423045 11.9577227,79.5423045 L70.9245409,79.5423045 C71.8858136,79.5423045 72.6647227,78.7626227 72.6647227,77.80135 L72.6647227,70.70385 L10.2175409,70.70385 L10.2175409,77.80135 Z" id="Fill-15" fill="#3EFFE3" mask="url(#mask-4)"></path>
                <polygon id="Fill-16" fill="#3EFFE3" mask="url(#mask-4)" points="10.2177727 64.7738636 72.6649545 64.7738636 72.6649545 64.3079091 10.2177727 64.3079091"></polygon>
                <polygon id="Fill-17" fill="#3EFFE3" mask="url(#mask-4)" points="10.2177727 58.0279545 72.6649545 58.0279545 72.6649545 57.5627727 10.2177727 57.5627727"></polygon>
                <polygon id="Fill-18" fill="#3EFFE3" mask="url(#mask-4)" points="10.2177727 51.1676818 72.6649545 51.1676818 72.6649545 50.7025 10.2177727 50.7025"></polygon>
                <polygon id="Fill-19" fill="#3EFFE3" mask="url(#mask-4)" points="10.2177727 43.9573636 72.6649545 43.9573636 72.6649545 43.4921818 10.2177727 43.4921818"></polygon>
            </g>
        </g>
    </g>
</svg>