<?xml version="1.0" encoding="UTF-8"?>
<svg width="166px" height="31px" viewBox="0 0 166 31" version="1.1" xmlns="http://www.w3.org/2000/svg" xmlns:xlink="http://www.w3.org/1999/xlink">
    <!-- Generator: Sketch 53.2 (72643) - https://sketchapp.com -->
    <title>Group 25</title>
    <desc>Created with Sketch.</desc>
    <defs>
        <polygon id="path-1" points="0 1.16735634e-05 32.3738235 1.16735634e-05 32.3738235 29.9730588 0 29.9730588"></polygon>
        <polygon id="path-3" points="0 1.16735634e-05 32.3738235 1.16735634e-05 32.3738235 29.9730588 0 29.9730588"></polygon>
        <polygon id="path-5" points="0 1.16735634e-05 32.3738235 1.16735634e-05 32.3738235 29.9730588 0 29.9730588"></polygon>
        <polygon id="path-7" points="0 1.16735634e-05 32.3738235 1.16735634e-05 32.3738235 29.9730588 0 29.9730588"></polygon>
    </defs>
    <g id="Page-1" stroke="none" stroke-width="1" fill="none" fill-rule="evenodd">
        <g id="Artboard-Copy-2" transform="translate(-556.000000, -1301.000000)">
            <g id="Group-25" transform="translate(556.000000, 1301.171807)">
                <g id="Group-3-Copy-4" transform="translate(16.285714, 15.000000) rotate(-180.000000) translate(-16.285714, -15.000000) translate(0.000000, 0.000000)">
                    <mask id="mask-2" fill="white">
                        <use xlink:href="#path-1"></use>
                    </mask>
                    <g id="Clip-2"></g>
                    <path d="M31.8334529,11.0824 L15.3702765,11.0824 C15.0720412,11.0824 15.0228647,10.9362824 15.2602765,10.7558706 L19.2822176,7.70181176 C19.5198059,7.52145882 19.7122765,7.13357647 19.7122765,6.83534118 L19.7122765,0.304223529 C19.7122765,0.00598823529 19.5199824,-0.0892470588 19.2828059,0.0916352941 L0.177923529,14.6590471 C-0.0593117647,14.8399294 -0.0593117647,15.1329882 0.177923529,15.3138706 L19.2829824,29.8814 C19.5202176,30.0623412 19.7124529,29.9671059 19.7124529,29.6688706 L19.7124529,23.1377529 C19.7124529,22.8395176 19.5198647,22.4515765 19.2823941,22.2712235 L15.2605118,19.2172235 C15.0228647,19.0368706 15.0722176,18.8906941 15.3705118,18.8906941 L31.8338059,18.8906941 C32.1320412,18.8906941 32.3738647,18.6488706 32.3738647,18.3506353 L32.3738647,11.6224588 C32.3734529,11.3241647 32.1316882,11.0824 31.8334529,11.0824" id="Fill-1" fill="#FFFFFF" mask="url(#mask-2)"></path>
                </g>
                <g id="Group-3-Copy-6" transform="translate(60.731897, 15.000000) rotate(-180.000000) translate(-60.731897, -15.000000) translate(44.446182, 0.000000)">
                    <mask id="mask-4" fill="white">
                        <use xlink:href="#path-3"></use>
                    </mask>
                    <g id="Clip-2"></g>
                    <path d="M31.8334529,11.0824 L15.3702765,11.0824 C15.0720412,11.0824 15.0228647,10.9362824 15.2602765,10.7558706 L19.2822176,7.70181176 C19.5198059,7.52145882 19.7122765,7.13357647 19.7122765,6.83534118 L19.7122765,0.304223529 C19.7122765,0.00598823529 19.5199824,-0.0892470588 19.2828059,0.0916352941 L0.177923529,14.6590471 C-0.0593117647,14.8399294 -0.0593117647,15.1329882 0.177923529,15.3138706 L19.2829824,29.8814 C19.5202176,30.0623412 19.7124529,29.9671059 19.7124529,29.6688706 L19.7124529,23.1377529 C19.7124529,22.8395176 19.5198647,22.4515765 19.2823941,22.2712235 L15.2605118,19.2172235 C15.0228647,19.0368706 15.0722176,18.8906941 15.3705118,18.8906941 L31.8338059,18.8906941 C32.1320412,18.8906941 32.3738647,18.6488706 32.3738647,18.3506353 L32.3738647,11.6224588 C32.3734529,11.3241647 32.1316882,11.0824 31.8334529,11.0824" id="Fill-1" fill="#FFFFFF" mask="url(#mask-4)"></path>
                </g>
                <g id="Group-3-Copy-7" transform="translate(105.178079, 15.000000) rotate(-180.000000) translate(-105.178079, -15.000000) translate(88.892365, 0.000000)">
                    <mask id="mask-6" fill="white">
                        <use xlink:href="#path-5"></use>
                    </mask>
                    <g id="Clip-2"></g>
                    <path d="M31.8334529,11.0824 L15.3702765,11.0824 C15.0720412,11.0824 15.0228647,10.9362824 15.2602765,10.7558706 L19.2822176,7.70181176 C19.5198059,7.52145882 19.7122765,7.13357647 19.7122765,6.83534118 L19.7122765,0.304223529 C19.7122765,0.00598823529 19.5199824,-0.0892470588 19.2828059,0.0916352941 L0.177923529,14.6590471 C-0.0593117647,14.8399294 -0.0593117647,15.1329882 0.177923529,15.3138706 L19.2829824,29.8814 C19.5202176,30.0623412 19.7124529,29.9671059 19.7124529,29.6688706 L19.7124529,23.1377529 C19.7124529,22.8395176 19.5198647,22.4515765 19.2823941,22.2712235 L15.2605118,19.2172235 C15.0228647,19.0368706 15.0722176,18.8906941 15.3705118,18.8906941 L31.8338059,18.8906941 C32.1320412,18.8906941 32.3738647,18.6488706 32.3738647,18.3506353 L32.3738647,11.6224588 C32.3734529,11.3241647 32.1316882,11.0824 31.8334529,11.0824" id="Fill-1" fill="#FFFFFF" mask="url(#mask-6)"></path>
                </g>
                <g id="Group-3-Copy-8" transform="translate(149.624261, 15.000000) rotate(-180.000000) translate(-149.624261, -15.000000) translate(133.338547, 0.000000)">
                    <mask id="mask-8" fill="white">
                        <use xlink:href="#path-7"></use>
                    </mask>
                    <g id="Clip-2"></g>
                    <path d="M31.8334529,11.0824 L15.3702765,11.0824 C15.0720412,11.0824 15.0228647,10.9362824 15.2602765,10.7558706 L19.2822176,7.70181176 C19.5198059,7.52145882 19.7122765,7.13357647 19.7122765,6.83534118 L19.7122765,0.304223529 C19.7122765,0.00598823529 19.5199824,-0.0892470588 19.2828059,0.0916352941 L0.177923529,14.6590471 C-0.0593117647,14.8399294 -0.0593117647,15.1329882 0.177923529,15.3138706 L19.2829824,29.8814 C19.5202176,30.0623412 19.7124529,29.9671059 19.7124529,29.6688706 L19.7124529,23.1377529 C19.7124529,22.8395176 19.5198647,22.4515765 19.2823941,22.2712235 L15.2605118,19.2172235 C15.0228647,19.0368706 15.0722176,18.8906941 15.3705118,18.8906941 L31.8338059,18.8906941 C32.1320412,18.8906941 32.3738647,18.6488706 32.3738647,18.3506353 L32.3738647,11.6224588 C32.3734529,11.3241647 32.1316882,11.0824 31.8334529,11.0824" id="Fill-1" fill="#FFFFFF" mask="url(#mask-8)"></path>
                </g>
            </g>
        </g>
    </g>
</svg>