<?xml version="1.0" encoding="UTF-8"?>
<svg width="301px" height="86px" viewBox="0 0 301 86" version="1.1" xmlns="http://www.w3.org/2000/svg" xmlns:xlink="http://www.w3.org/1999/xlink">
    <title>Group 19</title>
    <g id="Page-1" stroke="none" stroke-width="1" fill="none" fill-rule="evenodd">
        <g id="Artboard-Copy-2" transform="translate(-674.000000, -2479.000000)">
            <g id="Group-19" transform="translate(674.221629, 2479.135175)">
                <g id="Group-3" transform="translate(23.340909, 0.000000)">
                    <polygon id="Fill-1" fill="#F57474" points="6.91923051 31.4412695 14.8225017 79.9682017 261.847773 84.9177949 275.551214 11.314422"></polygon>
                    <polygon id="Fill-2" fill="#FFC91E" points="268.073375 2.88135593e-05 8.64406779e-05 26.5511475 9.06281525 74.8749441 256.135341 73.9105542"></polygon>
                </g>
                <g id="Group-9" transform="translate(0.000000, 25.564655)" fill="#000000">
                    <polygon id="Fill-1" points="40.3901446 24.4314153 34.3572934 18.3982541 28.8100826 23.222531 26.4373554 20.4941219 34.5297107 13.4569318 40.3579132 19.2853409 44.8623554 14.6655062 47.451095 17.1896798"></polygon>
                    <polygon id="Fill-2" points="0 32.4860021 2.37283058 35.2144112 7.92045455 30.3904442 13.9533058 36.4230888 21.0142562 29.1818698 18.4255165 26.6576963 13.9210744 31.2774277 8.09297521 25.4491219"></polygon>
                    <polygon id="Fill-3" points="15.4015289 -9.29752066e-05 8.34119835 7.24143595 10.9298347 9.7655062 15.4337603 5.14608471 21.2619628 10.9741839 29.3548347 3.93720041 26.9820041 1.20879132 21.4343802 6.03286157"></polygon>
                    <polygon id="Fill-4" points="17.6079236 46.2153719 20.1965599 48.7395455 24.7004855 44.120124 30.528688 49.9481198 38.6216632 42.9112397 36.2488326 40.1827273 30.7011054 45.0067975 24.6682541 38.9739463"></polygon>
                    <polygon id="Fill-5" points="39.8458678 8.7030062 38.8400826 5.23007231 49.1969008 2.23203512 50.202686 5.70496901"></polygon>
                    <polygon id="Fill-6" points="4.2447314 20.630062 15.0262397 20.630062 15.0262397 17.0143595 4.2447314 17.0143595"></polygon>
                    <polygon id="Fill-7" points="45.4267562 27.6241426 47.9831612 30.181064 55.6075413 22.5573037 53.0511364 20.0002789"></polygon>
                    <polygon id="Fill-8" points="38.7780062 36.1216632 28.7596178 32.1369525 30.0963946 28.7770351 40.1146798 32.7617459"></polygon>
                </g>
            </g>
        </g>
    </g>
</svg>