<?xml version="1.0" encoding="UTF-8"?>
<svg width="47px" height="48px" viewBox="0 0 47 48" version="1.1" xmlns="http://www.w3.org/2000/svg" xmlns:xlink="http://www.w3.org/1999/xlink">
    <title>Group 22</title>
    <defs>
        <polygon id="path-1" points="0.0047401148 0.0276897321 15.8322704 0.0276897321 15.8322704 16.7888983 0.0047401148 16.7888983"></polygon>
        <polygon id="path-3" points="0 24.4897959 24.4897959 24.4897959 24.4897959 0 0 0"></polygon>
    </defs>
    <g id="Page-1" stroke="none" stroke-width="1" fill="none" fill-rule="evenodd">
        <g id="Artboard-Copy-2" transform="translate(-114.000000, -156.000000)">
            <g id="Group-22" transform="translate(114.000000, 156.500000)">
                <polygon id="Path-5" fill="#FFFFFF" points="-2.84217094e-14 7.00765306 7 5.32907052e-14 46.3214286 5.32907052e-14 46.3214286 39.3214286 39.3214286 46.3214286 -2.84217094e-14 46.3214286"></polygon>
                <g id="Group-4" transform="translate(7.000000, 0.000000)">
                    <rect id="Rectangle-Copy-3" fill="#000000" x="0" y="0" width="39.3214286" height="39.3214286"></rect>
                    <g id="Group-7" transform="translate(7.007653, 7.007653)">
                        <g id="Group-3" transform="translate(8.657526, 7.700893)">
                            <mask id="mask-2" fill="white">
                                <use xlink:href="#path-1"></use>
                            </mask>
                            <g id="Clip-2"></g>
                            <path d="M15.8261527,16.7888983 L15.8261527,16.7878938 L15.8322752,16.7878938 L15.8322752,7.80626116 C15.8322752,3.41235172 14.8863568,0.0276897321 9.74962213,0.0276897321 C7.28021843,0.0276897321 5.62309152,1.38275989 4.94656091,2.66746971 L4.87514828,2.66746971 L4.87514828,0.437893814 L0.0047401148,0.437893814 L0.0047401148,16.7878938 L5.0761368,16.7878938 L5.0761368,8.6919595 C5.0761368,6.56029496 5.48021843,4.49913425 8.12004624,4.49913425 C10.7210826,4.49913425 10.7598262,6.93175542 10.7598262,8.82871014 L10.7598262,16.7888983 L15.8261527,16.7888983 Z" id="Fill-1" fill="#FFFFFF" mask="url(#mask-2)"></path>
                        </g>
                        <mask id="mask-4" fill="white">
                            <use xlink:href="#path-3"></use>
                        </mask>
                        <g id="Clip-5"></g>
                        <polygon id="Fill-4" fill="#FFFFFF" mask="url(#mask-4)" points="0.404081633 24.4897959 5.48160077 24.4897959 5.48160077 8.13979592 0.404081633 8.13979592"></polygon>
                        <path d="M2.94082749,-4.78316326e-06 C1.31737404,-4.78316326e-06 -4.78316327e-06,1.31737404 -4.78316327e-06,2.94082749 C-4.78316327e-06,4.56428093 1.31737404,5.90921078 2.94082749,5.90921078 C4.56428093,5.90921078 5.88161193,4.56428093 5.88161193,2.94082749 C5.88060746,1.31737404 4.56327647,-4.78316326e-06 2.94082749,-4.78316326e-06" id="Fill-6" fill="#FFFFFF" mask="url(#mask-4)"></path>
                    </g>
                </g>
            </g>
        </g>
    </g>
</svg>