<?xml version="1.0" encoding="UTF-8"?>
<svg width="17px" height="24px" viewBox="0 0 17 24" version="1.1" xmlns="http://www.w3.org/2000/svg" xmlns:xlink="http://www.w3.org/1999/xlink">
    <title>Group 8</title>
    <defs>
        <polygon id="path-1" points="0 4.6875e-05 15.1394063 4.6875e-05 15.1394063 19.9860469 0 19.9860469"></polygon>
    </defs>
    <g id="Page-1" stroke="none" stroke-width="1" fill="none" fill-rule="evenodd">
        <g id="Artboard-Copy-2" transform="translate(-525.000000, -59.000000)">
            <g id="Group-8" transform="translate(525.360000, 59.000000)">
                <path d="M10.4764219,7.47464063 C10.4764219,5.87184375 9.1725,4.567875 7.56970313,4.567875 C5.96690625,4.567875 4.6629375,5.87179688 4.6629375,7.47464063 C4.6629375,9.07748438 5.96690625,10.3814063 7.56970313,10.3814063 C9.1725,10.3814063 10.4764219,9.07748438 10.4764219,7.47464063" id="Fill-1" fill="#000000"></path>
                <path d="M12.3782484,18.6918609 C11.9528578,18.5398453 11.4821859,18.4108453 10.9788422,18.3053297 C9.46173281,20.1104391 8.19381094,21.3604078 8.06152969,21.4897359 L7.57070156,21.9700172 L7.07893594,21.4907203 C6.94646719,21.3616266 5.67488906,20.1129234 4.15459219,18.3073922 C3.65499844,18.4124391 3.18770156,18.5407359 2.76502969,18.6917672 C0.814889062,19.3886578 0.405576562,20.3246578 0.405576562,20.9870953 C0.405576562,21.6495328 0.814889062,22.5854859 2.76502969,23.2824234 C4.05976406,23.7451266 5.76681094,23.9999391 7.57168594,23.9999391 C9.37656094,23.9999391 11.0836078,23.7451266 12.3782953,23.2824234 C14.3284359,22.5854859 14.7377953,21.6495328 14.7377953,20.9870953 C14.7377953,20.3246578 14.3283891,19.3887516 12.3782484,18.6918609" id="Fill-3" fill="#000000"></path>
                <g id="Group-7" transform="translate(0.000000, -0.000047)">
                    <mask id="mask-2" fill="white">
                        <use xlink:href="#path-1"></use>
                    </mask>
                    <g id="Clip-6"></g>
                    <path d="M3.256575,7.4746875 C3.256575,5.0964375 5.1913875,3.16153125 7.56973125,3.16153125 C9.94798125,3.16153125 11.8827938,5.09639062 11.8827938,7.4746875 C11.8827938,9.85298437 9.94798125,11.7878437 7.56973125,11.7878437 C5.19143438,11.7878437 3.256575,9.85298437 3.256575,7.4746875 M11.1589969,15.8325937 C13.7630437,12.4441406 15.1394344,9.586875 15.1394344,7.56970312 C15.1394344,3.3958125 11.7436687,4.6875e-05 7.56973125,4.6875e-05 C3.39574687,4.6875e-05 -1.875e-05,3.3958125 -1.875e-05,7.56975 C-1.875e-05,9.602625 1.37984063,12.4685156 3.99030937,15.8574844 C5.41052812,17.7012187 6.84115312,19.2348281 7.56874687,19.9860469 C8.29840312,19.2298594 9.73648125,17.6835469 11.1589969,15.8325937" id="Fill-5" fill="#000000" mask="url(#mask-2)"></path>
                </g>
            </g>
        </g>
    </g>
</svg>