<?xml version="1.0" encoding="UTF-8"?>
<svg width="25px" height="24px" viewBox="0 0 25 24" version="1.1" xmlns="http://www.w3.org/2000/svg" xmlns:xlink="http://www.w3.org/1999/xlink">
    <title>Group 3</title>
    <defs>
        <polygon id="path-1" points="0 0 23.9999766 0 23.9999766 24 0 24"></polygon>
    </defs>
    <g id="Page-1" stroke="none" stroke-width="1" fill="none" fill-rule="evenodd">
        <g id="Artboard-Copy-2" transform="translate(-890.000000, -59.000000)">
            <g id="Group-3" transform="translate(890.738854, 59.000000)">
                <mask id="mask-2" fill="white">
                    <use xlink:href="#path-1"></use>
                </mask>
                <g id="Clip-2"></g>
                <path d="M7.99999219,17.0000156 L1.99999219,17.0000156 L1.99999219,11.0000156 C1.99999219,9.34598437 3.34600781,8.00001562 4.99999219,8.00001562 C6.65402344,8.00001562 7.99999219,9.34598437 7.99999219,11.0000156 L7.99999219,17.0000156 Z M19.2499922,6 L4.99999219,6 L4.99999219,4.00003125 L8.24997656,4.00003125 C8.66402344,4.00003125 8.99997656,3.66403125 8.99997656,3.25003125 L8.99997656,0.75 C8.99997656,0.336 8.66402344,0 8.24997656,0 L4.00000781,0 C3.44800781,0 2.99997656,0.447 2.99997656,1.00003125 L2.99997656,6.42398437 C1.23700781,7.19798438 -2.34375e-05,8.955 -2.34375e-05,11.0000156 L-2.34375e-05,18 C-2.34375e-05,18.5529844 0.448007813,18.9999844 1.00000781,18.9999844 L8.99997656,18.9999844 C9.04399219,18.9999844 9.08200781,18.9799688 9.12499219,18.975 C9.16699219,18.9819844 9.20599219,18.9999844 9.25000781,18.9999844 L11.9999766,18.9999844 L11.9999766,23.0000156 C11.9999766,23.553 12.4480078,24 13.0000078,24 C13.5520078,24 13.9999922,23.553 13.9999922,23.0000156 L13.9999922,18.9999844 L23.2499766,18.9999844 C23.6640234,18.9999844 23.9999766,18.6639844 23.9999766,18.2499844 L23.9999766,10.7500312 C23.9999766,8.13098438 21.8690391,6 19.2499922,6 L19.2499922,6 Z" id="Fill-1" fill="#000000" mask="url(#mask-2)"></path>
            </g>
        </g>
    </g>
</svg>