<?xml version="1.0" encoding="UTF-8"?>
<svg width="28px" height="24px" viewBox="0 0 28 24" version="1.1" xmlns="http://www.w3.org/2000/svg" xmlns:xlink="http://www.w3.org/1999/xlink">
    <title>Group 6</title>
    <defs>
        <polygon id="path-1" points="1.52866242e-05 0.0339363057 26.089172 0.0339363057 26.089172 10.9045605 1.52866242e-05 10.9045605"></polygon>
    </defs>
    <g id="Page-1" stroke="none" stroke-width="1" fill="none" fill-rule="evenodd">
        <g id="Artboard-Copy-2" transform="translate(-889.000000, -162.000000)">
            <g id="Group-6" transform="translate(889.694268, 162.000000)">
                <g id="Group-3" transform="translate(0.000000, 0.017019)">
                    <mask id="mask-2" fill="white">
                        <use xlink:href="#path-1"></use>
                    </mask>
                    <g id="Clip-2"></g>
                    <path d="M25.6448306,5.52122293 C22.2802955,1.98298089 17.8051873,0.0339363057 13.0445758,0.0339363057 C8.28391338,0.0339363057 3.80885605,1.98298089 0.444321019,5.52122293 C-0.148086624,6.14435669 -0.148086624,7.15765605 0.444321019,7.78078981 L2.95102166,10.4166624 C3.54134013,11.0355669 4.58393885,11.0355669 5.17420637,10.4166624 C6.01400255,9.53396178 6.96635924,8.80733758 8.00258854,8.25956688 C8.52177325,7.9915414 8.85726369,7.42833121 8.85303439,6.89650955 L9.23102166,4.03984713 C12.0041682,3.15342675 14.1137732,3.15398726 16.8593529,4.03933758 L17.2330599,6.8249172 C17.2330599,7.42736306 17.5526013,7.97727389 18.0749452,8.26440764 C19.1154038,8.81482803 20.0688306,9.54150318 20.9086777,10.4236433 C21.2027924,10.7341656 21.5977478,10.9045605 22.0202701,10.9045605 C22.4428433,10.9045605 22.8377987,10.7341656 23.1318624,10.4242038 L25.6449325,7.78089172 C26.2372892,7.1576051 26.2372892,6.14435669 25.6448306,5.52122293" id="Fill-1" fill="#000000" mask="url(#mask-2)"></path>
                </g>
                <path d="M16.3046115,14.1826242 C15.7048153,14.1826242 15.2176306,13.694828 15.2176306,13.0955924 C15.2176306,12.4963567 15.7048662,12.0085605 16.3046115,12.0085605 C16.9044076,12.0085605 17.3916943,12.4963567 17.3916943,13.0955924 C17.3916943,13.694828 16.9044076,14.1826242 16.3046115,14.1826242 L16.3046115,14.1826242 Z M16.3046115,17.4437707 C15.7048153,17.4437707 15.2176306,16.9559745 15.2176306,16.3567389 C15.2176306,15.7575032 15.7048662,15.269707 16.3046115,15.269707 C16.9044076,15.269707 17.3916943,15.7575032 17.3916943,16.3567389 C17.3916943,16.9559745 16.9044076,17.4437707 16.3046115,17.4437707 L16.3046115,17.4437707 Z M16.3046115,20.7049172 C15.7048153,20.7049172 15.2176306,20.217121 15.2176306,19.6178854 C15.2176306,19.0186497 15.7048662,18.5308535 16.3046115,18.5308535 C16.9044076,18.5308535 17.3916943,19.0186497 17.3916943,19.6178854 C17.3916943,20.217121 16.9044076,20.7049172 16.3046115,20.7049172 L16.3046115,20.7049172 Z M13.044535,14.1826242 C12.4447389,14.1826242 11.9575032,13.694828 11.9575032,13.0955924 C11.9575032,12.4963567 12.4447898,12.0085605 13.044535,12.0085605 C13.6442803,12.0085605 14.1315669,12.4963567 14.1315669,13.0955924 C14.1315669,13.694828 13.6443822,14.1826242 13.044535,14.1826242 L13.044535,14.1826242 Z M13.044535,17.4437707 C12.4447389,17.4437707 11.9575032,16.9559745 11.9575032,16.3567389 C11.9575032,15.7575032 12.4447898,15.269707 13.044535,15.269707 C13.6442803,15.269707 14.1315669,15.7575032 14.1315669,16.3567389 C14.1315669,16.9559745 13.6443822,17.4437707 13.044535,17.4437707 L13.044535,17.4437707 Z M13.044535,20.7049172 C12.4447389,20.7049172 11.9575032,20.217121 11.9575032,19.6178854 C11.9575032,19.0186497 12.4447898,18.5308535 13.044535,18.5308535 C13.6442803,18.5308535 14.1315669,19.0186497 14.1315669,19.6178854 C14.1315669,20.217121 13.6443822,20.7049172 13.044535,20.7049172 L13.044535,20.7049172 Z M9.78231847,14.1826242 C9.18252229,14.1826242 8.69528662,13.694828 8.69528662,13.0955924 C8.69528662,12.4963567 9.18257325,12.0085605 9.78231847,12.0085605 C10.3821146,12.0085605 10.8693503,12.4963567 10.8693503,13.0955924 C10.8694013,13.694828 10.3821146,14.1826242 9.78231847,14.1826242 L9.78231847,14.1826242 Z M9.78231847,17.4437707 C9.18252229,17.4437707 8.69528662,16.9559745 8.69528662,16.3567389 C8.69528662,15.7575032 9.18257325,15.269707 9.78231847,15.269707 C10.3821146,15.269707 10.8693503,15.7575032 10.8693503,16.3567389 C10.8694013,16.9559745 10.3821146,17.4437707 9.78231847,17.4437707 L9.78231847,17.4437707 Z M9.78231847,20.7049172 C9.18252229,20.7049172 8.69528662,20.217121 8.69528662,19.6178854 C8.69528662,19.0186497 9.18257325,18.5308535 9.78231847,18.5308535 C10.3821146,18.5308535 10.8693503,19.0186497 10.8693503,19.6178854 C10.8694013,20.217121 10.3821146,20.7049172 9.78231847,20.7049172 L9.78231847,20.7049172 Z M20.1167389,10.1857834 C19.6432611,9.29834395 18.7239236,8.74736306 17.7186242,8.74736306 L8.37044586,8.74736306 C7.3651465,8.74736306 6.44580892,9.29834395 5.97233121,10.1857834 L2.4936051,16.7086369 C2.28448408,17.1014013 2.17406369,17.5435414 2.17406369,17.9873121 L2.17406369,21.791949 C2.17406369,22.9909809 3.14965605,23.9660637 4.34817834,23.9660637 L21.7409427,23.9660637 C22.939465,23.9660637 23.9150573,22.9910318 23.9150573,21.791949 L23.9150573,17.9872611 C23.9150573,17.5435414 23.8046369,17.1014013 23.5955159,16.7080764 L20.1167389,10.1857834 Z" id="Fill-4" fill="#000000"></path>
            </g>
        </g>
    </g>
</svg>