<?xml version="1.0" encoding="UTF-8"?>
<svg width="81px" height="85px" viewBox="0 0 81 85" version="1.1" xmlns="http://www.w3.org/2000/svg" xmlns:xlink="http://www.w3.org/1999/xlink">
    <!-- Generator: Sketch 53.2 (72643) - https://sketchapp.com -->
    <title>Group 20</title>
    <desc>Created with Sketch.</desc>
    <defs>
        <polygon id="path-1" points="7.65765766e-05 0.493995495 80.9000901 0.493995495 80.9000901 83.4684685 7.65765766e-05 83.4684685"></polygon>
        <polygon id="path-3" points="0 84.0113964 80.9000901 84.0113964 80.9000901 0 0 0"></polygon>
    </defs>
    <g id="Page-1" stroke="none" stroke-width="1" fill="none" fill-rule="evenodd">
        <g id="Artboard-Copy-2" transform="translate(-230.000000, -1084.000000)">
            <g id="Group-20" transform="translate(230.037169, 1084.000000)">
                <g id="Group-3" transform="translate(0.000000, 0.542928)">
                    <mask id="mask-2" fill="white">
                        <use xlink:href="#path-1"></use>
                    </mask>
                    <g id="Clip-2"></g>
                    <path d="M73.6131396,37.032509 L73.6131396,78.3180045 C73.6131396,79.3594459 72.7654369,80.2071486 71.7232297,80.2071486 L10.9574189,80.2071486 C9.91521171,80.2071486 9.06750901,79.3594459 9.06750901,78.3180045 L9.06750901,37.032509 C9.06750901,35.9910676 9.91521171,35.1433649 10.9574189,35.1433649 L71.7232297,35.1433649 C72.7654369,35.1433649 73.6131396,35.9910676 73.6131396,37.032509 L73.6131396,37.032509 Z M75.4119234,76.7841757 L78.9558874,76.7841757 L78.9558874,73.6728694 L75.4119234,73.6728694 L75.4119234,76.7841757 Z M6.26786937,8.57129279 L6.26786937,10.6174189 L4.55791441,10.6174189 L4.55791441,8.57129279 L3.59381532,8.57129279 L5.41250901,4.19494144 L7.2312027,8.57129279 L6.26786937,8.57129279 Z M3.41386036,76.7841757 L6.95782432,76.7841757 L6.95782432,73.6728694 L3.41386036,73.6728694 L3.41386036,76.7841757 Z M9.1616982,0.493995495 L9.50705856,0.493995495 L9.50705856,28.035527 C9.50705856,29.3388604 10.5676441,30.3994459 11.8709775,30.3994459 L60.5009324,30.3994459 C61.8042658,30.3994459 62.8648514,29.3388604 62.8648514,28.035527 L62.8648514,0.493995495 L63.2102117,0.493995495 L63.2102117,28.035527 C63.2102117,29.529536 61.9949414,30.7455721 60.5009324,30.7455721 L11.8709775,30.7455721 C10.3769685,30.7455721 9.1616982,29.529536 9.1616982,28.035527 L9.1616982,0.493995495 Z M62.2307973,0.493995495 L62.2307973,27.1150766 C62.2307973,28.6420135 60.9925541,29.8810225 59.4648514,29.8810225 L23.7395811,29.8810225 C22.2126441,29.8810225 20.9744009,28.6420135 20.9744009,27.1150766 L20.9744009,0.493995495 L1.82336486,0.493995495 L7.65765766e-05,2.31804955 L7.65765766e-05,81.5296261 L1.93822973,83.468545 L79.3502568,83.468545 L80.9001667,81.9186351 L80.9001667,8.65552703 L72.7378694,0.493995495 L62.2307973,0.493995495 Z" id="Fill-1" fill="#FF89BB" mask="url(#mask-2)"></path>
                </g>
                <path d="M72.5445135,38.0850541 L72.5445135,77.8482072 C72.5445135,78.7694234 71.7971261,79.5168108 70.8751441,79.5168108 L11.2602793,79.5168108 C10.3382973,79.5168108 9.59090991,78.7694234 9.59090991,77.8482072 L9.59090991,38.0850541 C9.59090991,37.1630721 10.3382973,36.4164505 11.2602793,36.4164505 L70.8751441,36.4164505 C71.7971261,36.4164505 72.5445135,37.1630721 72.5445135,38.0850541 L72.5445135,38.0850541 Z M10.957036,36.032036 C10.1062703,36.032036 9.41401802,36.7242883 9.41401802,37.5750541 L9.41401802,78.8613153 C9.41401802,79.7120811 10.1062703,80.4043333 10.957036,80.4043333 L71.7236126,80.4043333 C72.5751441,80.4043333 73.2673964,79.7120811 73.2673964,78.8613153 L73.2673964,37.5750541 C73.2673964,36.7242883 72.5751441,36.032036 71.7236126,36.032036 L10.957036,36.032036 Z" id="Fill-4" fill="#F652FF"></path>
                <path d="M54.5094279,4.37903153 L45.2903739,4.37903153 C44.7175811,4.37903153 44.2527613,4.84308559 44.2527613,5.41587838 L44.2527613,26.7363288 C44.2527613,27.3083559 44.7175811,27.7731757 45.2903739,27.7731757 L54.5094279,27.7731757 C55.0822207,27.7731757 55.5462748,27.3083559 55.5462748,26.7363288 L55.5462748,5.41587838 C55.5462748,4.84308559 55.0822207,4.37903153 54.5094279,4.37903153" id="Fill-6" fill="#FF89BB"></path>
                <mask id="mask-4" fill="white">
                    <use xlink:href="#path-3"></use>
                </mask>
                <g id="Clip-9"></g>
                <polygon id="Fill-8" fill="#000000" mask="url(#mask-4)" points="3.41378378 77.327027 6.95774775 77.327027 6.95774775 74.2157207 3.41378378 74.2157207"></polygon>
                <polygon id="Fill-10" fill="#000000" mask="url(#mask-4)" points="3.5941982 9.11422072 4.5582973 9.11422072 4.5582973 11.1603468 6.26748649 11.1603468 6.26748649 9.11422072 7.23158559 9.11422072 5.41289189 4.73786937"></polygon>
                <path d="M55.5466577,26.7361757 C55.5466577,27.3089685 55.0826036,27.7730225 54.5098108,27.7730225 L45.289991,27.7730225 C44.7171982,27.7730225 44.2531441,27.3089685 44.2531441,26.7361757 L44.2531441,5.41649099 C44.2531441,4.8436982 44.7171982,4.37887838 45.289991,4.37887838 L54.5098108,4.37887838 C55.0826036,4.37887838 55.5466577,4.8436982 55.5466577,5.41649099 L55.5466577,26.7361757 Z M23.7398108,30.4233378 L59.4650811,30.4233378 C60.992018,30.4233378 62.231027,29.1850946 62.231027,27.6581577 L62.231027,1.03707658 L62.231027,0.69095045 C62.231027,0.309599099 61.9208919,-0.000536036036 61.5395405,-0.000536036036 L21.6653514,-0.000536036036 C21.284,-0.000536036036 20.9746306,0.309599099 20.9746306,0.69095045 L20.9746306,1.03707658 L20.9746306,27.6581577 C20.9746306,29.1850946 22.2128739,30.4233378 23.7398108,30.4233378 L23.7398108,30.4233378 Z" id="Fill-11" fill="#000000" mask="url(#mask-4)"></path>
                <path d="M11.8710541,31.2881171 L60.501009,31.2881171 C61.995018,31.2881171 63.2102883,30.0728468 63.2102883,28.5780721 L63.2102883,1.03730631 L62.8649279,1.03730631 L62.8649279,28.5780721 C62.8649279,29.8821712 61.8043423,30.941991 60.501009,30.941991 L11.8710541,30.941991 C10.5677207,30.941991 9.50713514,29.8821712 9.50713514,28.5780721 L9.50713514,1.03730631 L9.16177477,1.03730631 L9.16177477,28.5780721 C9.16177477,30.0728468 10.377045,31.2881171 11.8710541,31.2881171" id="Fill-12" fill="#B837BF" mask="url(#mask-4)"></path>
                <path d="M73.2677027,37.5754369 L73.2677027,78.8609324 C73.2677027,79.7116982 72.5754505,80.4047162 71.7231532,80.4047162 L10.9573423,80.4047162 C10.1065766,80.4047162 9.41355856,79.7116982 9.41355856,78.8609324 L9.41355856,37.5754369 C9.41355856,36.7246712 10.1065766,36.0316532 10.9573423,36.0316532 L71.7231532,36.0316532 C72.5754505,36.0316532 73.2677027,36.7246712 73.2677027,37.5754369 L73.2677027,37.5754369 Z M10.9573423,35.6862928 C9.9159009,35.6862928 9.06743243,36.5339955 9.06743243,37.5754369 L9.06743243,78.8609324 C9.06743243,79.9023739 9.9159009,80.7500766 10.9573423,80.7500766 L71.7231532,80.7500766 C72.7653604,80.7500766 73.6130631,79.9023739 73.6130631,78.8609324 L73.6130631,37.5754369 C73.6130631,36.5339955 72.7653604,35.6862928 71.7231532,35.6862928 L10.9573423,35.6862928 Z" id="Fill-13" fill="#B837BF" mask="url(#mask-4)"></path>
                <path d="M10.124955,43.5613514 L72.0103153,43.5613514 L72.0103153,43.1003604 L10.124955,43.1003604 L10.124955,43.5613514 Z M10.124955,50.7067117 L72.0103153,50.7067117 L72.0103153,50.2457207 L10.124955,50.2457207 L10.124955,50.7067117 Z M10.124955,57.5051802 L72.0103153,57.5051802 L72.0103153,57.0441892 L10.124955,57.0441892 L10.124955,57.5051802 Z M10.124955,64.1895495 L72.0103153,64.1895495 L72.0103153,63.7285586 L10.124955,63.7285586 L10.124955,64.1895495 Z M72.0103153,77.1003604 C72.0103153,78.052973 71.2384234,78.8256306 70.285045,78.8256306 L11.8502252,78.8256306 C10.8976126,78.8256306 10.124955,78.052973 10.124955,77.1003604 L10.124955,70.0668018 L72.0103153,70.0668018 L72.0103153,77.1003604 Z M11.2598198,36.415991 C10.3378378,36.415991 9.59121622,37.1633784 9.59121622,38.0853604 L9.59121622,77.8485135 C9.59121622,78.7697297 10.3378378,79.5171171 11.2598198,79.5171171 L70.8754505,79.5171171 C71.7974324,79.5171171 72.5448198,78.7697297 72.5448198,77.8485135 L72.5448198,38.0853604 C72.5448198,37.1633784 71.7974324,36.415991 70.8754505,36.415991 L11.2598198,36.415991 Z" id="Fill-14" fill="#FFFFFF" mask="url(#mask-4)"></path>
                <path d="M10.1248784,77.1005901 C10.1248784,78.0532027 10.897536,78.8250946 11.8501486,78.8250946 L70.2857342,78.8250946 C71.2383468,78.8250946 72.0102387,78.0532027 72.0102387,77.1005901 L72.0102387,70.0670315 L10.1248784,70.0670315 L10.1248784,77.1005901 Z" id="Fill-15" fill="#AA44F2" mask="url(#mask-4)"></path>
                <polygon id="Fill-16" fill="#AA44F2" mask="url(#mask-4)" points="10.124955 64.1895495 72.0103153 64.1895495 72.0103153 63.7285586 10.124955 63.7285586"></polygon>
                <polygon id="Fill-17" fill="#AA44F2" mask="url(#mask-4)" points="10.124955 57.5051802 72.0103153 57.5051802 72.0103153 57.0441892 10.124955 57.0441892"></polygon>
                <polygon id="Fill-18" fill="#AA44F2" mask="url(#mask-4)" points="10.124955 50.7067117 72.0103153 50.7067117 72.0103153 50.2457207 10.124955 50.2457207"></polygon>
                <polygon id="Fill-19" fill="#AA44F2" mask="url(#mask-4)" points="10.124955 43.5613514 72.0103153 43.5613514 72.0103153 43.1003604 10.124955 43.1003604"></polygon>
            </g>
        </g>
    </g>
</svg>