<?xml version="1.0" encoding="UTF-8"?>
<svg width="47px" height="47px" viewBox="0 0 47 47" version="1.1" xmlns="http://www.w3.org/2000/svg" xmlns:xlink="http://www.w3.org/1999/xlink">
    <title>Group 23</title>
    <defs>
        <polygon id="path-1" points="0 -3.31448506e-15 29.8544431 -3.31448506e-15 29.8544431 24.4339359 0 24.4339359"></polygon>
        <filter id="filter-3">
            <feColorMatrix in="SourceGraphic" type="matrix" values="0 0 0 0 1.000000 0 0 0 0 1.000000 0 0 0 0 1.000000 0 0 0 1.000000 0"></feColorMatrix>
        </filter>
    </defs>
    <g id="Page-1" stroke="none" stroke-width="1" fill="none" fill-rule="evenodd">
        <g id="Artboard-Copy-2" transform="translate(-114.000000, -87.000000)">
            <g id="Group-23" transform="translate(114.000000, 87.000000)">
                <polygon id="Path-5-Copy" fill="#FFFFFF" points="-2.84217094e-14 7.00765306 7 5.32907052e-14 46.3214286 5.32907052e-14 46.3214286 39.3214286 39.3214286 46.3214286 -2.84217094e-14 46.3214286"></polygon>
                <g id="Group-9" transform="translate(7.000000, 0.000000)">
                    <rect id="Rectangle" fill="#000000" x="0" y="0" width="39.3214286" height="39.3214286"></rect>
                    <g id="Group-3" transform="translate(5.272233, 9.137755)">
                        <mask id="mask-2" fill="white">
                            <use xlink:href="#path-1"></use>
                        </mask>
                        <g id="Clip-2"></g>
                        <g id="Group" mask="url(#mask-2)">
                            <g transform="translate(0.727767, 3.862245)" id="soundcloud-logo-(1)" filter="url(#filter-3)">
                                <g>
                                    <path d="M1.39762245,6.70386364 C1.33577551,6.70386364 1.28517347,6.75290909 1.27718367,6.82056818 L0.992806122,9.41495455 L1.27718367,11.9517273 C1.28517347,12.0193864 1.33577551,12.0687273 1.39762245,12.0687273 C1.45858163,12.0687273 1.508,12.0202727 1.51776531,11.9520227 L1.8415,9.41465909 L1.51776531,6.82027273 C1.508,6.75143182 1.45858163,6.70386364 1.39762245,6.70386364 Z" id="Path" fill="#000000" fill-rule="nonzero"></path>
                                    <path d="M0.327877551,7.69777273 C0.267806122,7.69777273 0.219867347,7.74386364 0.211877551,7.81093182 L0,9.41495455 L0.211877551,10.9917955 C0.219571429,11.0585682 0.267510204,11.1046591 0.327877551,11.1046591 C0.386469388,11.1046591 0.434112245,11.0585682 0.443581633,10.9923864 L0.69422449,9.41495455 L0.443581633,7.80945455 C0.434112245,7.74386364 0.386469388,7.69777273 0.327877551,7.69777273 Z" id="Path" fill="#000000" fill-rule="nonzero"></path>
                                    <path d="M2.5342449,6.19509091 C2.45789796,6.19509091 2.39693878,6.25477273 2.3892449,6.33690909 L2.11907143,9.41495455 L2.3892449,12.3804318 C2.39693878,12.4628636 2.45789796,12.52225 2.5342449,12.52225 C2.60911224,12.52225 2.67007143,12.4628636 2.67894898,12.3807273 L2.98552041,9.41465909 L2.67894898,6.33661364 C2.67007143,6.25477273 2.60911224,6.19509091 2.5342449,6.19509091 Z" id="Path" fill="#000000" fill-rule="nonzero"></path>
                                    <path d="M3.68033673,6.08636364 C3.59037755,6.08636364 3.51728571,6.15786364 3.51018367,6.253 L3.25510204,9.41584091 L3.51018367,12.4749773 C3.51728571,12.5695227 3.59037755,12.6413182 3.68033673,12.6413182 C3.76881633,12.6413182 3.84161224,12.5695227 3.84989796,12.4749773 L4.13960204,9.41584091 L3.84989796,6.25240909 C3.84161224,6.15786364 3.76881633,6.08636364 3.68033673,6.08636364 Z" id="Path" fill="#000000" fill-rule="nonzero"></path>
                                    <polygon id="Path" fill="#000000" fill-rule="nonzero" points="5.02942857 12.5006818 5.02942857 12.5006818 5.02942857 12.5012727"></polygon>
                                    <path d="M5.02942857,6.48079545 C5.02232653,6.37295455 4.93828571,6.29052273 4.83530612,6.29052273 C4.73084694,6.29052273 4.64739796,6.37265909 4.64088776,6.48168182 L4.4000102,9.41554545 L4.64088776,12.5003864 C4.64739796,12.6088182 4.73114286,12.69125 4.83530612,12.69125 C4.93858163,12.69125 5.02232653,12.6088182 5.02942857,12.5003864 L5.30256122,9.41554545 L5.02942857,6.48079545 Z" id="Path" fill="#000000" fill-rule="nonzero"></path>
                                    <path d="M6.00004082,4.42738636 C5.88285714,4.42738636 5.78697959,4.52252273 5.78106122,4.64395455 L5.55497959,9.41702273 L5.78106122,12.5015682 C5.78727551,12.6215227 5.88315306,12.7169545 6.00004082,12.7169545 C6.11604082,12.7169545 6.21191837,12.6218182 6.21902041,12.5006818 L6.21902041,12.5018636 L6.47469388,9.41731818 L6.21902041,4.64395455 C6.21162245,4.52252273 6.1157449,4.42738636 6.00004082,4.42738636 Z" id="Path" fill="#000000" fill-rule="nonzero"></path>
                                    <path d="M7.15560204,3.328 C7.0245102,3.328 6.91768367,3.43377273 6.91176531,3.56879545 C6.91176531,3.56938636 6.70018367,9.43356818 6.70018367,9.43356818 L6.91206122,12.4989091 C6.91797959,12.6333409 7.0245102,12.7391136 7.15560204,12.7391136 C7.28580612,12.7391136 7.39352041,12.6333409 7.39914286,12.4983182 L7.39914286,12.5000909 L7.63854082,9.43356818 L7.39914286,3.56879545 C7.39352041,3.43377273 7.28580612,3.328 7.15560204,3.328 Z" id="Path" fill="#000000" fill-rule="nonzero"></path>
                                    <path d="M8.35703061,2.79795455 C8.21173469,2.79795455 8.09366327,2.91495455 8.08863265,3.06386364 C8.08863265,3.06415909 7.89184694,9.4185 7.89184694,9.4185 L8.08863265,12.4522273 C8.09395918,12.5999545 8.21173469,12.7166591 8.35703061,12.7166591 C8.50143878,12.7166591 8.6195102,12.5999545 8.62542857,12.4513409 L8.62542857,12.4531136 L8.84766327,9.41879545 L8.62542857,3.06386364 C8.61921429,2.91495455 8.50143878,2.79795455 8.35703061,2.79795455 Z" id="Path" fill="#000000" fill-rule="nonzero"></path>
                                    <path d="M9.8422449,2.85025 C9.83721429,2.68715909 9.7084898,2.55922727 9.54958163,2.55922727 C9.3894898,2.55922727 9.26076531,2.68745455 9.25632653,2.85025 L9.07404082,9.4185 L9.25662245,12.4333182 C9.26106122,12.5946364 9.3894898,12.7222727 9.54958163,12.7222727 C9.7084898,12.7222727 9.8375102,12.5946364 9.8422449,12.4324318 L10.0476122,9.41938636 L9.8422449,2.85025 Z" id="Path" fill="#000000" fill-rule="nonzero"></path>
                                    <polygon id="Path" fill="#000000" fill-rule="nonzero" points="9.8422449 12.4321364 9.8422449 12.4321364 9.8422449 12.4336136"></polygon>
                                    <path d="M10.7513061,2.70311364 C10.5767143,2.70311364 10.4373367,2.84168182 10.4331939,3.01865909 L10.2657041,9.41968182 L10.4337857,12.40525 C10.4376327,12.5804545 10.5767143,12.7196136 10.7513061,12.7196136 C10.9247143,12.7196136 11.0640918,12.5801591 11.0688265,12.4034773 L11.0688265,12.4058409 L11.2576224,9.41909091 L11.0688265,3.01777273 C11.0640918,2.84109091 10.9247143,2.70311364 10.7513061,2.70311364 Z" id="Path" fill="#000000" fill-rule="nonzero"></path>
                                    <path d="M11.9625,2.912 C11.7742959,2.912 11.6233776,3.06179545 11.6198265,3.25265909 L11.4668367,9.41968182 L11.6198265,12.3875227 C11.6233776,12.5766136 11.7742959,12.7258182 11.9625,12.7258182 C12.1504082,12.7258182 12.3010306,12.5766136 12.3045816,12.3854545 L12.3045816,12.3878182 L12.4762143,9.42056818 L12.3045816,3.25295455 C12.3010306,3.06179545 12.1504082,2.912 11.9625,2.912 Z" id="Path" fill="#000000" fill-rule="nonzero"></path>
                                    <path d="M13.3858673,1.77863636 C13.3278673,1.73934091 13.2577347,1.71629545 13.1828673,1.71629545 C13.1100714,1.71629545 13.0423061,1.73845455 12.9851939,1.77568182 C12.8848776,1.84097727 12.8177041,1.95354545 12.8159286,2.08177273 L12.8147449,2.15090909 L12.6768469,9.4185 C12.6768469,9.42263636 12.8159286,12.3683182 12.8159286,12.3683182 C12.8159286,12.3730455 12.8165204,12.3762955 12.8168163,12.3807273 C12.8209592,12.4628636 12.8520306,12.5385 12.9020408,12.5984773 C12.9698061,12.6791364 13.0707143,12.7311364 13.1828673,12.7311364 C13.2825918,12.7311364 13.3734388,12.6900682 13.4397245,12.6238864 C13.5063061,12.558 13.5483265,12.467 13.550102,12.3659545 L13.5654898,12.0746364 L13.7048673,9.42027273 L13.550398,2.08147727 C13.5480306,1.95531818 13.4829286,1.84422727 13.3858673,1.77863636 Z" id="Path" fill="#000000" fill-rule="nonzero"></path>
                                    <polygon id="Path" fill="#000000" fill-rule="nonzero" points="13.550102 12.3683182 13.550102 12.3674318 13.550102 12.3686136 13.550102 12.3671364 13.550102 12.3659545 13.550102 12.3659545 13.550102 12.3674318"></polygon>
                                    <path d="M14.5973571,1.08284091 C14.5393571,1.04738636 14.4707041,1.02670455 14.3982041,1.02670455 C14.3046939,1.02670455 14.2185816,1.06038636 14.1508163,1.11593182 C14.0638163,1.18772727 14.0075918,1.29586364 14.0058163,1.417 L14.0049286,1.45718182 L13.8451327,9.42145455 L13.9268061,10.8934091 L14.0058163,12.3263636 C14.0090714,12.5382045 14.184551,12.7137045 14.3982041,12.7137045 C14.6109694,12.7137045 14.786449,12.5382045 14.7894082,12.3237045 L14.7894082,12.3266591 L14.7894082,12.32725 L14.964,9.42175 L14.964,9.42175 L14.79,1.41640909 C14.7879286,1.27488636 14.710398,1.15109091 14.5973571,1.08284091 Z" id="Path" fill="#000000" fill-rule="nonzero"></path>
                                    <path d="M25.3744082,5.63225 C24.8873265,5.63225 24.421551,5.73093182 23.9983878,5.90790909 C23.714602,2.70606818 21.0252959,0.194113636 17.7447449,0.194113636 C16.9416224,0.194113636 16.1595102,0.351886364 15.4682449,0.618681818 C15.1998469,0.722681818 15.1288265,0.829045455 15.1261633,1.03645455 C15.1261633,1.03675 15.1261633,12.3133636 15.1261633,12.3133636 C15.1288265,12.5305227 15.2975,12.6998182 15.5102653,12.7207955 C15.5194388,12.7219773 25.375,12.7207955 25.375,12.7207955 C27.3404898,12.7207955 28.9334184,11.1477955 28.9334184,9.18509091 C28.9331224,7.22297727 27.3401939,5.63225 25.3744082,5.63225 Z" id="Path" fill="#000000" fill-rule="nonzero"></path>
                                </g>
                            </g>
                        </g>
                    </g>
                </g>
            </g>
        </g>
    </g>
</svg>