<?xml version="1.0" encoding="UTF-8"?>
<svg width="47px" height="47px" viewBox="0 0 47 47" version="1.1" xmlns="http://www.w3.org/2000/svg" xmlns:xlink="http://www.w3.org/1999/xlink">
    <title>Group 23</title>
    <defs>
        <polygon id="path-1" points="0 -3.31448506e-15 29.8544431 -3.31448506e-15 29.8544431 24.4339359 0 24.4339359"></polygon>
    </defs>
    <g id="Page-1" stroke="none" stroke-width="1" fill="none" fill-rule="evenodd">
        <g id="Artboard-Copy-2" transform="translate(-114.000000, -87.000000)">
            <g id="Group-23" transform="translate(114.000000, 87.000000)">
                <polygon id="Path-5-Copy" fill="#FFFFFF" points="-2.84217094e-14 7.00765306 7 5.32907052e-14 46.3214286 5.32907052e-14 46.3214286 39.3214286 39.3214286 46.3214286 -2.84217094e-14 46.3214286"></polygon>
                <g id="Group-9" transform="translate(7.000000, 0.000000)">
                    <rect id="Rectangle" fill="#000000" x="0" y="0" width="39.3214286" height="39.3214286"></rect>
                    <g id="Group-3" transform="translate(5.272233, 8.137755)">
                        <mask id="mask-2" fill="white">
                            <use xlink:href="#path-1"></use>
                        </mask>
                        <g id="Clip-2"></g>
                        <path d="M11.1377085,24.4339359 C9.84668805,24.4339359 8.51788338,24.3293878 7.18114869,24.1198251 C4.82668805,23.750379 2.44330612,22.5188338 1.76884548,22.1500875 L-1.74927114e-05,21.1829738 L1.91508455,20.5531778 C4.00849563,19.864898 5.28196501,19.4377843 6.85834985,18.7690962 C5.2799242,18.0046647 4.06342274,16.629621 3.47782507,14.8521283 L3.03228571,13.4996501 L3.39765015,13.5554519 C3.05117784,13.2062391 2.77765015,12.8518367 2.56558017,12.5295627 C1.81146939,11.3840816 1.4121691,9.98443149 1.49712536,8.78501458 L1.58097376,7.6044898 L2.28773761,7.87825073 C1.98954519,7.31521866 1.77409329,6.71393586 1.64744606,6.08367347 C1.33881633,4.54670554 1.59712536,2.91381924 2.37496793,1.48588921 L2.99059475,0.35574344 L3.81397668,1.34472303 C6.41811662,4.4728863 9.71642566,6.32851312 13.6311195,6.87177843 C13.4712362,5.76956268 13.5910029,4.70588921 13.9875627,3.75247813 C14.4492536,2.64227405 15.2705948,1.70093294 16.3620816,1.02991254 C17.5742682,0.284897959 19.0442974,-0.0761516035 20.5013236,0.0134110787 C22.0472128,0.108338192 23.4507114,0.687580175 24.5654052,1.68956268 C25.1097784,1.54810496 25.5108863,1.39708455 26.0529854,1.19300292 C26.3791662,1.07026239 26.7490204,0.930845481 27.2118776,0.771428571 L28.9174169,0.183731778 L27.8052303,3.36023324 C27.8785248,3.35405248 27.9541516,3.34886297 28.0332187,3.34542274 L29.8544431,3.26297376 L28.778,4.73411079 C28.716309,4.81842566 28.7005656,4.84233236 28.6786997,4.87533528 C28.5919359,5.00612245 28.4839475,5.16874636 27.0063965,7.14169096 C26.6365423,7.63568513 26.4518192,8.27912536 26.4862216,8.95381924 C26.6171837,11.517551 26.3026064,13.8372012 25.5507697,15.84793 C24.8396327,17.7502624 23.7377085,19.382449 22.2759009,20.6991837 C20.4669213,22.3282216 18.1603324,23.4436152 15.4198076,24.0139359 C14.0754927,24.2936443 12.6318776,24.4339359 11.1377085,24.4339359" id="Fill-1" fill="#FFFFFF" mask="url(#mask-2)"></path>
                    </g>
                </g>
            </g>
        </g>
    </g>
</svg>