<?xml version="1.0" encoding="UTF-8"?>
<svg width="97px" height="97px" viewBox="0 0 97 97" version="1.1" xmlns="http://www.w3.org/2000/svg" xmlns:xlink="http://www.w3.org/1999/xlink">
    <!-- Generator: Sketch 53.2 (72643) - https://sketchapp.com -->
    <title>Group 21 Copy</title>
    <desc>Created with Sketch.</desc>
    <defs>
        <polygon id="path-1" points="7.65765766e-05 0.494148649 80.9000901 0.494148649 80.9000901 83.4684685 7.65765766e-05 83.4684685"></polygon>
        <polygon id="path-3" points="0 84.0113964 80.9000901 84.0113964 80.9000901 0 0 0"></polygon>
    </defs>
    <g id="Page-1" stroke="none" stroke-width="1" fill="none" fill-rule="evenodd">
        <g id="Artboard-Copy-2" transform="translate(-1270.000000, -1433.000000)">
            <g id="Group-21-Copy" transform="translate(1318.570545, 1480.608332) rotate(-13.000000) translate(-1318.570545, -1480.608332) translate(1277.984960, 1438.108332)">
                <g id="Group-3" transform="translate(0.000000, 0.542928)">
                    <mask id="mask-2" fill="white">
                        <use xlink:href="#path-1"></use>
                    </mask>
                    <g id="Clip-2"></g>
                    <path d="M73.6131396,37.0326622 L73.6131396,78.3181577 C73.6131396,79.3595991 72.7654369,80.2073018 71.7232297,80.2073018 L10.9574189,80.2073018 C9.91521171,80.2073018 9.06750901,79.3595991 9.06750901,78.3181577 L9.06750901,37.0326622 C9.06750901,35.9912207 9.91521171,35.1427523 10.9574189,35.1427523 L71.7232297,35.1427523 C72.7654369,35.1427523 73.6131396,35.9912207 73.6131396,37.0326622 L73.6131396,37.0326622 Z M75.4119234,76.7843288 L78.9558874,76.7843288 L78.9558874,73.6730225 L75.4119234,73.6730225 L75.4119234,76.7843288 Z M6.26786937,8.57144595 L6.26786937,10.6175721 L4.55791441,10.6175721 L4.55791441,8.57144595 L3.59381532,8.57144595 L5.41250901,4.19432883 L7.2312027,8.57144595 L6.26786937,8.57144595 Z M3.41386036,76.7843288 L6.95782432,76.7843288 L6.95782432,73.6730225 L3.41386036,73.6730225 L3.41386036,76.7843288 Z M9.1616982,0.494148649 L9.50705856,0.494148649 L9.50705856,28.0356802 C9.50705856,29.3390135 10.5676441,30.3995991 11.8709775,30.3995991 L60.5009324,30.3995991 C61.8042658,30.3995991 62.8648514,29.3390135 62.8648514,28.0356802 L62.8648514,0.494148649 L63.2102117,0.494148649 L63.2102117,28.0356802 C63.2102117,29.5296892 61.9949414,30.7449595 60.5009324,30.7449595 L11.8709775,30.7449595 C10.3769685,30.7449595 9.1616982,29.5296892 9.1616982,28.0356802 L9.1616982,0.494148649 Z M62.2307973,0.494148649 L62.2307973,27.1152297 C62.2307973,28.6421667 60.9925541,29.8804099 59.4648514,29.8804099 L23.7395811,29.8804099 C22.2126441,29.8804099 20.9744009,28.6421667 20.9744009,27.1152297 L20.9744009,0.494148649 L1.82336486,0.494148649 L7.65765766e-05,2.31743694 L7.65765766e-05,81.5290135 L1.93822973,83.4686982 L79.3502568,83.4686982 L80.9001667,81.9187883 L80.9001667,8.65568018 L72.7378694,0.494148649 L62.2307973,0.494148649 Z" id="Fill-1" fill="#FFC91E" mask="url(#mask-2)"></path>
                </g>
                <path d="M72.5445135,38.0848243 L72.5445135,77.8487432 C72.5445135,78.7699595 71.7971261,79.5165811 70.8751441,79.5165811 L11.2602793,79.5165811 C10.3382973,79.5165811 9.59090991,78.7699595 9.59090991,77.8487432 L9.59090991,38.0848243 C9.59090991,37.1636081 10.3382973,36.4162207 11.2602793,36.4162207 L70.8751441,36.4162207 C71.7971261,36.4162207 72.5445135,37.1636081 72.5445135,38.0848243 L72.5445135,38.0848243 Z M10.957036,36.0318063 C10.1062703,36.0318063 9.41401802,36.7248243 9.41401802,37.5755901 L9.41401802,78.8610856 C9.41401802,79.7118514 10.1062703,80.4048694 10.957036,80.4048694 L71.7236126,80.4048694 C72.5751441,80.4048694 73.2673964,79.7118514 73.2673964,78.8610856 L73.2673964,37.5755901 C73.2673964,36.7248243 72.5751441,36.0318063 71.7236126,36.0318063 L10.957036,36.0318063 Z" id="Fill-4" fill="#FFC91E"></path>
                <path d="M54.5094279,4.37918468 L45.2903739,4.37918468 C44.7175811,4.37918468 44.2527613,4.84323874 44.2527613,5.41603153 L44.2527613,26.7357162 C44.2527613,27.308509 44.7175811,27.7733288 45.2903739,27.7733288 L54.5094279,27.7733288 C55.0822207,27.7733288 55.5462748,27.308509 55.5462748,26.7357162 L55.5462748,5.41603153 C55.5462748,4.84323874 55.0822207,4.37918468 54.5094279,4.37918468" id="Fill-6" fill="#FFC91E"></path>
                <mask id="mask-4" fill="white">
                    <use xlink:href="#path-3"></use>
                </mask>
                <g id="Clip-9"></g>
                <polygon id="Fill-8" fill="#000000" mask="url(#mask-4)" points="3.41378378 77.327027 6.95774775 77.327027 6.95774775 74.2157207 3.41378378 74.2157207"></polygon>
                <polygon id="Fill-10" fill="#000000" mask="url(#mask-4)" points="3.5941982 9.11437387 4.5582973 9.11437387 4.5582973 11.1605 6.26748649 11.1605 6.26748649 9.11437387 7.23158559 9.11437387 5.41289189 4.73725676"></polygon>
                <path d="M55.5466577,26.7359459 C55.5466577,27.3087387 55.0826036,27.7727928 54.5098108,27.7727928 L45.289991,27.7727928 C44.7171982,27.7727928 44.2531441,27.3087387 44.2531441,26.7359459 L44.2531441,5.41626126 C44.2531441,4.84346847 44.7171982,4.37941441 45.289991,4.37941441 L54.5098108,4.37941441 C55.0826036,4.37941441 55.5466577,4.84346847 55.5466577,5.41626126 L55.5466577,26.7359459 Z M23.7398108,30.4231081 L59.4650811,30.4231081 C60.992018,30.4231081 62.231027,29.1848649 62.231027,27.6579279 L62.231027,1.03684685 L62.231027,0.690720721 C62.231027,0.309369369 61.9208919,0 61.5395405,0 L21.6653514,0 C21.284,0 20.9746306,0.309369369 20.9746306,0.690720721 L20.9746306,1.03684685 L20.9746306,27.6579279 C20.9746306,29.1848649 22.2128739,30.4231081 23.7398108,30.4231081 L23.7398108,30.4231081 Z" id="Fill-11" fill="#000000" mask="url(#mask-4)"></path>
                <path d="M11.8710541,31.287964 L60.501009,31.287964 C61.995018,31.287964 63.2102883,30.0726937 63.2102883,28.5786847 L63.2102883,1.03715315 L62.8649279,1.03715315 L62.8649279,28.5786847 C62.8649279,29.882018 61.8043423,30.9426036 60.501009,30.9426036 L11.8710541,30.9426036 C10.5677207,30.9426036 9.50713514,29.882018 9.50713514,28.5786847 L9.50713514,1.03715315 L9.16177477,1.03715315 L9.16177477,28.5786847 C9.16177477,30.0726937 10.377045,31.287964 11.8710541,31.287964" id="Fill-12" fill="#478AFE" mask="url(#mask-4)"></path>
                <path d="M11.8710541,31.287964 L60.501009,31.287964 C61.995018,31.287964 63.2102883,30.0726937 63.2102883,28.5786847 L63.2102883,1.03715315 L62.8649279,1.03715315 L62.8649279,28.5786847 C62.8649279,29.882018 61.8043423,30.9426036 60.501009,30.9426036 L11.8710541,30.9426036 C10.5677207,30.9426036 9.50713514,29.882018 9.50713514,28.5786847 L9.50713514,1.03715315 L9.16177477,1.03715315 L9.16177477,28.5786847 C9.16177477,30.0726937 10.377045,31.287964 11.8710541,31.287964 Z" id="Stroke-13" stroke="#C80B02" mask="url(#mask-4)"></path>
                <path d="M73.2677027,37.5755901 L73.2677027,78.8610856 C73.2677027,79.7118514 72.5754505,80.4048694 71.7231532,80.4048694 L10.9573423,80.4048694 C10.1065766,80.4048694 9.41355856,79.7118514 9.41355856,78.8610856 L9.41355856,37.5755901 C9.41355856,36.7248243 10.1065766,36.0318063 10.9573423,36.0318063 L71.7231532,36.0318063 C72.5754505,36.0318063 73.2677027,36.7248243 73.2677027,37.5755901 L73.2677027,37.5755901 Z M10.9573423,35.6856802 C9.9159009,35.6856802 9.06743243,36.5341486 9.06743243,37.5755901 L9.06743243,78.8610856 C9.06743243,79.902527 9.9159009,80.7502297 10.9573423,80.7502297 L71.7231532,80.7502297 C72.7653604,80.7502297 73.6130631,79.902527 73.6130631,78.8610856 L73.6130631,37.5755901 C73.6130631,36.5341486 72.7653604,35.6856802 71.7231532,35.6856802 L10.9573423,35.6856802 Z" id="Fill-14" fill="#C80B02" mask="url(#mask-4)"></path>
                <path d="M10.124955,43.5613514 L72.0103153,43.5613514 L72.0103153,43.1003604 L10.124955,43.1003604 L10.124955,43.5613514 Z M10.124955,50.7067117 L72.0103153,50.7067117 L72.0103153,50.244955 L10.124955,50.244955 L10.124955,50.7067117 Z M10.124955,57.5059459 L72.0103153,57.5059459 L72.0103153,57.044955 L10.124955,57.044955 L10.124955,57.5059459 Z M10.124955,64.1895495 L72.0103153,64.1895495 L72.0103153,63.7285586 L10.124955,63.7285586 L10.124955,64.1895495 Z M72.0103153,77.1011261 C72.0103153,78.0537387 71.2384234,78.8248649 70.285045,78.8248649 L11.8502252,78.8248649 C10.8976126,78.8248649 10.124955,78.0537387 10.124955,77.1011261 L10.124955,70.0668018 L72.0103153,70.0668018 L72.0103153,77.1011261 Z M11.2598198,36.4167568 C10.3378378,36.4167568 9.59121622,37.1633784 9.59121622,38.0845946 L9.59121622,77.8485135 C9.59121622,78.7697297 10.3378378,79.5171171 11.2598198,79.5171171 L70.8754505,79.5171171 C71.7974324,79.5171171 72.5448198,78.7697297 72.5448198,77.8485135 L72.5448198,38.0845946 C72.5448198,37.1633784 71.7974324,36.4167568 70.8754505,36.4167568 L11.2598198,36.4167568 Z" id="Fill-15" fill="#FFFFFF" mask="url(#mask-4)"></path>
                <path d="M10.1248784,77.1007432 C10.1248784,78.0533559 10.897536,78.8252477 11.8501486,78.8252477 L70.2857342,78.8252477 C71.2383468,78.8252477 72.0102387,78.0533559 72.0102387,77.1007432 L72.0102387,70.0664189 L10.1248784,70.0664189 L10.1248784,77.1007432 Z" id="Fill-16" fill="#C80B02" mask="url(#mask-4)"></path>
                <polygon id="Fill-17" fill="#C80B02" mask="url(#mask-4)" points="10.124955 64.1895495 72.0103153 64.1895495 72.0103153 63.7285586 10.124955 63.7285586"></polygon>
                <polygon id="Fill-18" fill="#C80B02" mask="url(#mask-4)" points="10.124955 57.5059459 72.0103153 57.5059459 72.0103153 57.044955 10.124955 57.044955"></polygon>
                <polygon id="Fill-19" fill="#C80B02" mask="url(#mask-4)" points="10.124955 50.7067117 72.0103153 50.7067117 72.0103153 50.244955 10.124955 50.244955"></polygon>
                <polygon id="Fill-20" fill="#C80B02" mask="url(#mask-4)" points="10.124955 43.5613514 72.0103153 43.5613514 72.0103153 43.1003604 10.124955 43.1003604"></polygon>
            </g>
        </g>
    </g>
</svg>