<svg xmlns="http://www.w3.org/2000/svg" viewBox="0 0 500 500" version="1.1" id="svg_null">
  <g id="root" stroke="none" stroke-width="1" fill="none" fill-rule="evenodd">
    <rect id="background.primary" fill="#eeeeee" x="0" y="0" width="500" height="500"></rect>
    <g id="Group-2" transform="translate(40.000000, 297.000000)">
      <rect id="Rectangle" x="0" y="0" width="420" height="48"></rect>
      <text id="headerText.accent" font-family="Fira Mono" font-size="46" font-weight="700" line-spacing="48"
            letter-spacing="2.76" fill="#393e46" data-text-alignment="C" font-style="normal">
        <tspan x="29.21875" y="42">CV Geekifier</tspan>
      </text>
    </g>
    <g id="Group" transform="translate(40.000000, 360.000000)">
      <rect id="Rectangle-3" x="0" y="0" width="420" height="30"></rect>
      <text id="captionText.accent" opacity=".5" font-family="Fira Mono" font-size="25" font-weight="400"
            letter-spacing="1.5" fill="#393e46" data-text-alignment="C" font-style="normal">
        <tspan x="37.5" y="21">Your Own Geeky Resume</tspan>
      </text>
    </g>
    <rect id="icon.secondary" x="175" y="91" width="150" height="150" display="none" fill="#00adb5"></rect>
    <svg xmlns="http://www.w3.org/2000/svg" viewBox="0 0 50 50" version="1.1"
         fill="#00adb5" id="svg_icon.secondary" x="175" y="91" width="150" height="150">
      <g id="surface1" fill="#00adb5">
        <path style=" "
              d="M 3 3 C 1.355469 3 0 4.355469 0 6 L 0 47 L 50 47 L 50 6 C 50 4.355469 48.644531 3 47 3 Z M 3 5 L 47 5 C 47.566406 5 48 5.433594 48 6 L 48 9 L 2 9 L 2 6 C 2 5.433594 2.433594 5 3 5 Z M 2 11 L 48 11 L 48 45 L 2 45 Z M 28.90625 14.96875 C 28.863281 14.976563 28.820313 14.988281 28.78125 15 C 28.453125 15.074219 28.179688 15.308594 28.0625 15.625 L 19.0625 37.625 C 18.855469 38.144531 19.105469 38.730469 19.625 38.9375 C 20.144531 39.144531 20.730469 38.894531 20.9375 38.375 L 29.9375 16.375 C 30.085938 16.046875 30.046875 15.660156 29.832031 15.371094 C 29.621094 15.078125 29.265625 14.925781 28.90625 14.96875 Z M 15.9375 20.96875 C 15.90625 20.976563 15.875 20.988281 15.84375 21 C 15.722656 21.019531 15.605469 21.0625 15.5 21.125 L 8.5 25.125 C 8.183594 25.300781 7.984375 25.636719 7.984375 26 C 7.984375 26.363281 8.183594 26.699219 8.5 26.875 L 15.5 30.875 C 15.984375 31.152344 16.597656 30.984375 16.875 30.5 C 17.152344 30.015625 16.984375 29.402344 16.5 29.125 L 11.03125 26 L 16.5 22.875 C 16.96875 22.675781 17.214844 22.160156 17.070313 21.671875 C 16.925781 21.183594 16.4375 20.878906 15.9375 20.96875 Z M 33.8125 21 C 33.386719 21.066406 33.046875 21.398438 32.976563 21.824219 C 32.90625 22.25 33.117188 22.675781 33.5 22.875 L 38.96875 26 L 33.5 29.125 C 33.015625 29.402344 32.847656 30.015625 33.125 30.5 C 33.402344 30.984375 34.015625 31.152344 34.5 30.875 L 41.5 26.875 C 41.816406 26.699219 42.015625 26.363281 42.015625 26 C 42.015625 25.636719 41.816406 25.300781 41.5 25.125 L 34.5 21.125 C 34.292969 21.003906 34.050781 20.957031 33.8125 21 Z "
              fill="#00adb5"></path>
      </g>
    </svg>
  </g>
</svg>
